<svg width="15" height="15" viewBox="0 0 15 15" fill="none" xmlns="http://www.w3.org/2000/svg">
<path d="M10.7479 3.12454L10.7496 3.12744C12.4177 3.19285 13.75 4.56584 13.75 6.25C13.75 7.53144 12.9787 8.63275 11.875 9.115V10H3.125V9.115C2.02131 8.63275 1.25 7.53144 1.25 6.25C1.25 4.56588 2.5822 3.19292 4.25027 3.12744C4.89831 2.00522 6.11096 1.25 7.5 1.25C8.88881 1.25 10.1005 2.0053 10.7479 3.12454Z" fill="#E5E5E5"/>
<path d="M3.125 11.25V11.875C3.125 12.9106 3.96447 13.75 5 13.75H10C11.0356 13.75 11.875 12.9106 11.875 11.875V11.25H3.125Z" fill="#E5E5E5"/>
</svg>
