<svg width="16" height="16" viewBox="0 0 16 16" fill="none" xmlns="http://www.w3.org/2000/svg">
<g clip-path="url(#clip0_1974_10113)">
<mask id="mask0_1974_10113" style="mask-type:luminance" maskUnits="userSpaceOnUse" x="0" y="0" width="16" height="16">
<path d="M16 0H0V16H16V0Z" fill="black"/>
<path fill-rule="evenodd" clip-rule="evenodd" d="M13.334 13.3333V3.33325C13.334 2.22869 12.4386 1.33325 11.334 1.33325H4.66732C3.56275 1.33325 2.66732 2.22869 2.66732 3.33325V13.3333H2.00065C1.63246 13.3333 1.33398 13.6317 1.33398 13.9999C1.33398 14.3681 1.63246 14.6666 2.00065 14.6666H14.0007C14.3689 14.6666 14.6673 14.3681 14.6673 13.9999C14.6673 13.6317 14.3689 13.3333 14.0007 13.3333H13.334ZM4.66732 7.99992C4.66732 7.63172 4.9658 7.33325 5.33398 7.33325H6.00065C6.36884 7.33325 6.66732 7.63172 6.66732 7.99992C6.66732 8.36812 6.36884 8.66658 6.00065 8.66658H5.33398C4.9658 8.66658 4.66732 8.36812 4.66732 7.99992Z" fill="white"/>
</mask>
<g mask="url(#mask0_1974_10113)">
</g>
<path fill-rule="evenodd" clip-rule="evenodd" d="M15.98 7.4717C15.8909 7.1145 15.5287 6.8969 15.1714 6.98604C10.8955 8.05317 6.61956 9.12044 2.34331 10.1866C2.17197 10.2294 2.02417 10.3386 1.93316 10.49C1.84222 10.6414 1.81489 10.8237 1.85764 10.9952L2.09983 11.9652C2.45616 13.394 3.9034 14.2633 5.33224 13.9072L9.86021 12.7784C11.2892 12.4221 12.1591 10.9749 11.8029 9.5459L11.7215 9.22104L15.4943 8.2803C15.8515 8.19117 16.0691 7.8289 15.98 7.4717Z" fill="currentColor"/>
<path d="M2.36537 5.85786C2.10248 5.65624 1.72591 5.70573 1.52422 5.96854C1.32287 6.23142 1.37219 6.60808 1.6349 6.80972L2.50404 7.47638C2.76689 7.67792 3.14412 7.62838 3.34584 7.36565C3.54739 7.10278 3.49735 6.72618 3.23451 6.52453L2.36537 5.85786Z" fill="currentColor"/>
<path d="M5.9987 5.50024C5.6306 5.50036 5.33203 5.79879 5.33203 6.16691C5.3322 6.53488 5.6307 6.83345 5.9987 6.83358C6.36678 6.83358 6.6652 6.53496 6.66536 6.16691C6.66536 5.79872 6.36688 5.50024 5.9987 5.50024Z" fill="currentColor"/>
<path d="M8.9987 4.16699C8.63063 4.16711 8.33203 4.46554 8.33203 4.83366C8.33223 5.20163 8.6307 5.50021 8.9987 5.50033C9.36683 5.50033 9.66523 5.20171 9.66536 4.83366C9.66536 4.46547 9.3669 4.16699 8.9987 4.16699Z" fill="currentColor"/>
<path d="M2.9987 3.33374C2.6306 3.33385 2.33203 3.63229 2.33203 4.00041C2.3322 4.36838 2.6307 4.66695 2.9987 4.66707C3.36678 4.66707 3.6652 4.36845 3.66536 4.00041C3.66536 3.63221 3.36688 3.33374 2.9987 3.33374Z" fill="currentColor"/>
<path d="M6.60046 1.79712C6.30408 1.64896 5.94396 1.76898 5.79578 2.06534L5.29578 3.06534C5.14784 3.36165 5.26776 3.72188 5.564 3.87003C5.86028 4.01817 6.2204 3.89795 6.3687 3.6018L6.86868 2.6018C7.01688 2.30542 6.89688 1.94531 6.60046 1.79712Z" fill="currentColor"/>
</g>
<defs>
<clipPath id="clip0_1974_10113">
<rect width="16" height="16" fill="white"/>
</clipPath>
</defs>
</svg>
