<svg width="15" height="15" viewBox="0 0 15 15" fill="none" xmlns="http://www.w3.org/2000/svg">
<path d="M9.43081 1.26224L8.24294 5.68841C8.68625 5.97821 8.94925 6.48124 9.083 6.95336C9.26262 7.58724 9.269 8.34218 9.0865 9.02336C8.90394 9.70455 8.52094 10.3552 8.04844 10.8144C7.59575 11.2543 6.93225 11.6316 6.22358 11.4417C5.51491 11.2519 5.12896 10.5933 4.95689 9.98599C4.77729 9.35205 4.77091 8.59711 4.95342 7.91593C5.13594 7.23474 5.51895 6.58411 5.99145 6.12496C6.33994 5.7863 6.81331 5.48474 7.33612 5.45046L8.52537 1.01924C8.59244 0.769201 8.84956 0.620907 9.09956 0.688013C9.34962 0.755119 9.49794 1.01221 9.43081 1.26224Z" fill="#E5E5E5"/>
<path d="M10.8236 7.98001C10.5649 7.96801 10.3456 8.16788 10.3336 8.42651C10.3215 8.68513 10.5214 8.90451 10.78 8.91651C11.4749 8.94882 12.1162 9.05351 12.5684 9.22544C13.0646 9.41394 13.1246 9.59257 13.1251 9.65701C13.1259 9.77982 13.0684 9.91282 12.8597 10.0657C12.6434 10.2241 12.3159 10.3614 11.9119 10.4714C11.1096 10.6898 10.1512 10.7631 9.58544 10.7778C9.32669 10.7846 9.12232 10.9998 9.12907 11.2586C9.13582 11.5174 9.35107 11.7218 9.60988 11.715C10.2069 11.6994 11.2509 11.6229 12.1582 11.3759C12.609 11.2532 13.0631 11.0788 13.4136 10.8221C13.7716 10.5598 14.0661 10.1743 14.0626 9.65057C14.0577 8.94469 13.4406 8.55401 12.9015 8.34907C12.3186 8.12751 11.5666 8.01457 10.8236 7.98001Z" fill="#E5E5E5"/>
<path d="M3.44621 9.32209C3.69307 9.24415 3.82998 8.98078 3.752 8.73396C3.67402 8.48709 3.41069 8.35015 3.16382 8.42815C2.59651 8.60734 2.05439 8.85628 1.64626 9.20865C1.22728 9.57034 0.937531 10.0545 0.9375 10.6662C0.93745 11.6928 1.69893 12.3796 2.61737 12.816C3.54923 13.2587 4.78419 13.5202 6.05549 13.6509C7.33412 13.7824 8.68519 13.7853 9.87 13.6907C11.0417 13.5972 12.098 13.4048 12.7622 13.1212C13.0003 13.0195 13.1109 12.7441 13.0092 12.506C12.9075 12.2679 12.6321 12.1573 12.394 12.259C11.8733 12.4814 10.9406 12.6647 9.79544 12.7562C8.66337 12.8465 7.3695 12.8437 6.15142 12.7183C4.92596 12.5923 3.81228 12.3458 3.01971 11.9692C2.21373 11.5862 1.87498 11.1423 1.875 10.6663C1.87501 10.3858 1.99721 10.1442 2.25889 9.91828C2.53141 9.68296 2.93866 9.48246 3.44621 9.32209Z" fill="#E5E5E5"/>
</svg>
