<svg width="15" height="15" viewBox="0 0 15 15" fill="none" xmlns="http://www.w3.org/2000/svg">
<path fill-rule="evenodd" clip-rule="evenodd" d="M3.90531 2.37224C4.25167 2.05253 4.70573 1.875 5.17709 1.875H9.82461C10.296 1.875 10.7501 2.05253 11.0964 2.37224L13.8438 4.90831C14.6263 5.63063 14.6509 6.85887 13.8979 7.61188L8.82668 12.6831C8.09443 13.4153 6.90724 13.4153 6.17503 12.6831L1.10386 7.61188C0.350847 6.85887 0.3754 5.63063 1.15791 4.90831L3.90531 2.37224ZM6.3803 5.44194C6.62436 5.19786 6.62436 4.80214 6.3803 4.55806C6.13623 4.31398 5.74051 4.31398 5.49643 4.55806L4.24643 5.80806C4.00235 6.05214 4.00235 6.44788 4.24643 6.69194L5.49643 7.94194C5.74051 8.186 6.13623 8.186 6.3803 7.94194C6.62436 7.69788 6.62436 7.30212 6.3803 7.05806L5.57225 6.25L6.3803 5.44194Z" fill="#F0F4F8"/>
</svg>
