<svg width="582" height="269" viewBox="0 0 582 269" fill="none" xmlns="http://www.w3.org/2000/svg">
<g clip-path="url(#clip0_1782_8858)">
<rect width="582" height="269" fill="#FFE32A"/>
<g clip-path="url(#clip1_1782_8858)">
<path d="M26.7871 46V35.8486L16.5947 16.4072H24.6133L30.4785 28.7119H30.6426L36.4873 16.4072H44.5264L34.3135 35.8486V46H26.7871ZM55.7466 46.5332C52.7661 46.5332 50.1821 45.9111 47.9946 44.667C45.8071 43.4229 44.1187 41.6592 42.9292 39.376C41.7398 37.0791 41.145 34.3584 41.145 31.2139V31.1729C41.145 28.0283 41.7398 25.3145 42.9292 23.0312C44.1323 20.748 45.8277 18.9844 48.0152 17.7402C50.2027 16.4961 52.7798 15.874 55.7466 15.874C58.7544 15.874 61.3521 16.4961 63.5396 17.7402C65.7271 18.9844 67.4087 20.748 68.5845 23.0312C69.7739 25.3145 70.3687 28.0283 70.3687 31.1729V31.2139C70.3687 34.3584 69.7739 37.0791 68.5845 39.376C67.4087 41.6592 65.7271 43.4229 63.5396 44.667C61.3657 45.9111 58.7681 46.5332 55.7466 46.5332ZM55.7466 40.2988C57.1958 40.2988 58.4331 39.9297 59.4585 39.1914C60.4976 38.4395 61.2974 37.3867 61.8579 36.0332C62.4185 34.666 62.6987 33.0596 62.6987 31.2139V31.1729C62.6987 29.3135 62.4116 27.707 61.8374 26.3535C61.2769 25 60.4771 23.9541 59.438 23.2158C58.3989 22.4775 57.1685 22.1084 55.7466 22.1084C54.3657 22.1084 53.1489 22.4775 52.0962 23.2158C51.0571 23.9404 50.2505 24.9795 49.6763 26.333C49.1157 27.6865 48.8355 29.2998 48.8355 31.1729V31.2139C48.8355 33.0732 49.1157 34.6865 49.6763 36.0537C50.2505 37.4072 51.0571 38.4531 52.0962 39.1914C53.1353 39.9297 54.3521 40.2988 55.7466 40.2988ZM84.2549 46.5332C81.6983 46.5332 79.4629 46.0752 77.5489 45.1592C75.6348 44.2432 74.1514 42.958 73.0987 41.3037C72.0459 39.6494 71.5196 37.7148 71.5196 35.5V16.4072H79.0459V34.7822C79.0459 35.9307 79.251 36.915 79.6612 37.7354C80.0713 38.5557 80.6592 39.1914 81.4248 39.6426C82.2041 40.0801 83.1543 40.2988 84.2754 40.2988C85.3965 40.2988 86.3467 40.0801 87.126 39.6426C87.9053 39.1914 88.4932 38.5557 88.8897 37.7354C89.2862 36.915 89.4844 35.9307 89.4844 34.7822V16.4072H97.0108V35.5C97.0108 37.7012 96.4844 39.6357 95.4317 41.3037C94.3926 42.958 92.9161 44.2432 91.002 45.1592C89.1016 46.0752 86.8526 46.5332 84.2549 46.5332ZM98.1002 28.4453L99.4127 16.4072H106.098L103.084 28.4453H98.1002ZM114.899 46L105.526 16.4072H113.976L119.636 38.6377H119.779L125.44 16.4072H133.889L124.517 46H114.899ZM134.219 46V16.4072H154.502V22.457H141.746V28.3018H153.743V33.9619H141.746V39.9502H154.502V46H134.219ZM31.8115 77.5332C28.8584 77.5332 26.3018 76.9248 24.1416 75.708C21.9951 74.4912 20.334 72.7412 19.1582 70.458C17.9961 68.1611 17.415 65.4062 17.415 62.1934V62.1729C17.415 58.96 18.0029 56.2119 19.1787 53.9287C20.3545 51.6455 22.0156 49.9023 24.1621 48.6992C26.3223 47.4824 28.8721 46.874 31.8115 46.874C34.3955 46.874 36.6719 47.3799 38.6406 48.3916C40.623 49.4033 42.1816 50.7842 43.3164 52.5342C44.4648 54.2842 45.0801 56.2666 45.1621 58.4814L45.1826 58.666H37.9229L37.8818 58.3789C37.7178 57.3398 37.376 56.4307 36.8564 55.6514C36.3506 54.8584 35.6738 54.2363 34.8262 53.7852C33.9785 53.334 32.9736 53.1084 31.8115 53.1084C30.4443 53.1084 29.2549 53.4707 28.2432 54.1953C27.2451 54.9199 26.4727 55.959 25.9258 57.3125C25.3789 58.6523 25.1055 60.2656 25.1055 62.1523V62.1729C25.1055 64.0732 25.3789 65.707 25.9258 67.0742C26.4727 68.4414 27.252 69.4873 28.2637 70.2119C29.2754 70.9365 30.4648 71.2988 31.832 71.2988C32.9258 71.2988 33.8965 71.0869 34.7441 70.6631C35.5918 70.2256 36.2891 69.6104 36.8359 68.8174C37.3828 68.0107 37.7451 67.0537 37.9229 65.9463L37.9639 65.7412H45.2031V65.9668C45.1074 68.168 44.4785 70.1436 43.3164 71.8936C42.168 73.6299 40.6025 75.0039 38.6201 76.0156C36.6514 77.0273 34.3818 77.5332 31.8115 77.5332ZM60.0122 77.5332C57.0318 77.5332 54.4478 76.9111 52.2603 75.667C50.0728 74.4229 48.3843 72.6592 47.1948 70.376C46.0054 68.0791 45.4107 65.3584 45.4107 62.2139V62.1729C45.4107 59.0283 46.0054 56.3145 47.1948 54.0312C48.398 51.748 50.0933 49.9844 52.2808 48.7402C54.4683 47.4961 57.0454 46.874 60.0122 46.874C63.02 46.874 65.6177 47.4961 67.8052 48.7402C69.9927 49.9844 71.6743 51.748 72.8501 54.0312C74.0396 56.3145 74.6343 59.0283 74.6343 62.1729V62.2139C74.6343 65.3584 74.0396 68.0791 72.8501 70.376C71.6743 72.6592 69.9927 74.4229 67.8052 75.667C65.6314 76.9111 63.0337 77.5332 60.0122 77.5332ZM60.0122 71.2988C61.4614 71.2988 62.6987 70.9297 63.7241 70.1914C64.7632 69.4395 65.563 68.3867 66.1236 67.0332C66.6841 65.666 66.9644 64.0596 66.9644 62.2139V62.1729C66.9644 60.3135 66.6773 58.707 66.103 57.3535C65.5425 56 64.7427 54.9541 63.7036 54.2158C62.6646 53.4775 61.4341 53.1084 60.0122 53.1084C58.6314 53.1084 57.4146 53.4775 56.3618 54.2158C55.3228 54.9404 54.5161 55.9795 53.9419 57.333C53.3814 58.6865 53.1011 60.2998 53.1011 62.1729V62.2139C53.1011 64.0732 53.3814 65.6865 53.9419 67.0537C54.5161 68.4072 55.3228 69.4531 56.3618 70.1914C57.4009 70.9297 58.6177 71.2988 60.0122 71.2988ZM75.7852 77V47.4072H82.1836L96.4981 68.0586L91.0225 64.4697H94.1397V47.4072H101.646V77H95.3291L80.9737 56.1641L86.4082 59.7529H83.3116V77H75.7852ZM115.04 77.5332C112.579 77.5332 110.439 77.1846 108.621 76.4873C106.816 75.7764 105.401 74.7578 104.376 73.4316C103.364 72.1055 102.796 70.499 102.673 68.6123L102.653 68.2432H109.646L109.687 68.4482C109.824 69.0908 110.138 69.6514 110.63 70.1299C111.136 70.5947 111.779 70.9639 112.558 71.2373C113.337 71.4971 114.206 71.627 115.163 71.627C116.161 71.627 117.015 71.4971 117.726 71.2373C118.451 70.9639 119.011 70.5947 119.408 70.1299C119.804 69.665 120.003 69.125 120.003 68.5098V68.4893C120.003 67.6553 119.64 67.0127 118.916 66.5615C118.191 66.0967 116.961 65.7002 115.224 65.3721L112.189 64.7773C109.263 64.2305 107.035 63.2461 105.503 61.8242C103.986 60.3887 103.227 58.5361 103.227 56.2666V56.2461C103.227 54.3457 103.733 52.6982 104.745 51.3037C105.756 49.8955 107.144 48.8086 108.908 48.043C110.685 47.2637 112.702 46.874 114.958 46.874C117.432 46.874 119.538 47.2432 121.274 47.9814C123.01 48.7061 124.35 49.7314 125.294 51.0576C126.251 52.3838 126.77 53.9424 126.852 55.7334L126.873 56.1641H119.879L119.859 55.9385C119.777 55.2822 119.524 54.7217 119.1 54.2568C118.676 53.792 118.116 53.4297 117.419 53.1699C116.721 52.9102 115.921 52.7803 115.019 52.7803C114.103 52.7803 113.324 52.9102 112.681 53.1699C112.039 53.4297 111.546 53.7852 111.205 54.2363C110.877 54.6738 110.712 55.1729 110.712 55.7334V55.7539C110.712 56.5469 111.075 57.1758 111.799 57.6406C112.524 58.1055 113.679 58.4883 115.265 58.7891L118.3 59.3633C120.406 59.7598 122.135 60.3203 123.489 61.0449C124.842 61.7695 125.847 62.6924 126.503 63.8135C127.16 64.9209 127.488 66.2676 127.488 67.8535V67.874C127.488 69.8428 126.996 71.5518 126.011 73.001C125.027 74.4502 123.605 75.5713 121.746 76.3643C119.886 77.1436 117.651 77.5332 115.04 77.5332ZM141.19 77.5332C138.633 77.5332 136.398 77.0752 134.483 76.1592C132.569 75.2432 131.086 73.958 130.033 72.3037C128.981 70.6494 128.454 68.7148 128.454 66.5V47.4072H135.981V65.7822C135.981 66.9307 136.186 67.915 136.596 68.7354C137.006 69.5557 137.594 70.1914 138.359 70.6426C139.139 71.0801 140.089 71.2988 141.21 71.2988C142.331 71.2988 143.281 71.0801 144.061 70.6426C144.84 70.1914 145.428 69.5557 145.824 68.7354C146.221 67.915 146.419 66.9307 146.419 65.7822V47.4072H153.945V66.5C153.945 68.7012 153.419 70.6357 152.366 72.3037C151.327 73.958 149.851 75.2432 147.937 76.1592C146.036 77.0752 143.787 77.5332 141.19 77.5332ZM155.917 77V47.4072H164.632L172.036 66.7256H172.179L179.583 47.4072H188.278V77H181.654V58.5225H178.168L185.53 48.2275L174.251 77H169.944L158.665 48.2275L166.027 58.5225H162.541V77H155.917ZM190.229 77V47.4072H210.511V53.457H197.755V59.3018H209.752V64.9619H197.755V70.9502H210.511V77H190.229ZM212.236 77V47.4072H224.274C227.241 47.4072 229.784 47.9678 231.903 49.0889C234.022 50.21 235.642 51.8574 236.763 54.0312C237.884 56.1914 238.445 58.8438 238.445 61.9883V62.0293C238.445 65.1738 237.884 67.8672 236.763 70.1094C235.642 72.3379 234.022 74.0469 231.903 75.2363C229.798 76.4121 227.255 77 224.274 77H212.236ZM219.762 70.9297H223.269C224.896 70.9297 226.27 70.6016 227.391 69.9453C228.512 69.2754 229.353 68.2842 229.914 66.9717C230.488 65.6592 230.775 64.0186 230.775 62.0498V62.0088C230.775 60.1631 230.481 58.6045 229.893 57.333C229.305 56.0615 228.444 55.1045 227.309 54.4619C226.188 53.8057 224.841 53.4775 223.269 53.4775H219.762V70.9297ZM18.2354 108V78.4072H38.5176V84.457H25.7617V90.3018H37.7588V95.9619H25.7617V101.95H38.5176V108H18.2354ZM40.2427 108V78.4072H46.6411L60.9556 99.0586L55.48 95.4697H58.5972V78.4072H66.103V108H59.7866L45.4312 87.1641L50.8657 90.7529H47.7691V108H40.2427ZM81.8555 108.533C78.875 108.533 76.2911 107.911 74.1036 106.667C71.9161 105.423 70.2276 103.659 69.0381 101.376C67.8487 99.0791 67.2539 96.3584 67.2539 93.2139V93.1729C67.2539 90.0283 67.8487 87.3145 69.0381 85.0312C70.2412 82.748 71.9366 80.9844 74.1241 79.7402C76.3116 78.4961 78.8887 77.874 81.8555 77.874C84.8633 77.874 87.461 78.4961 89.6485 79.7402C91.836 80.9844 93.5176 82.748 94.6934 85.0312C95.8829 87.3145 96.4776 90.0283 96.4776 93.1729V93.2139C96.4776 96.3584 95.8829 99.0791 94.6934 101.376C93.5176 103.659 91.836 105.423 89.6485 106.667C87.4746 107.911 84.877 108.533 81.8555 108.533ZM81.8555 102.299C83.3047 102.299 84.542 101.93 85.5674 101.191C86.6065 100.439 87.4063 99.3867 87.9668 98.0332C88.5274 96.666 88.8077 95.0596 88.8077 93.2139V93.1729C88.8077 91.3135 88.5205 89.707 87.9463 88.3535C87.3858 87 86.586 85.9541 85.5469 85.2158C84.5079 84.4775 83.2774 84.1084 81.8555 84.1084C80.4746 84.1084 79.2579 84.4775 78.2051 85.2158C77.1661 85.9404 76.3594 86.9795 75.7852 88.333C75.2246 89.6865 74.9444 91.2998 74.9444 93.1729V93.2139C74.9444 95.0732 75.2246 96.6865 75.7852 98.0537C76.3594 99.4072 77.1661 100.453 78.2051 101.191C79.2442 101.93 80.461 102.299 81.8555 102.299ZM110.364 108.533C107.807 108.533 105.572 108.075 103.658 107.159C101.744 106.243 100.26 104.958 99.2076 103.304C98.1548 101.649 97.6285 99.7148 97.6285 97.5V78.4072H105.155V96.7822C105.155 97.9307 105.36 98.915 105.77 99.7354C106.18 100.556 106.768 101.191 107.534 101.643C108.313 102.08 109.263 102.299 110.384 102.299C111.505 102.299 112.456 102.08 113.235 101.643C114.014 101.191 114.602 100.556 114.999 99.7354C115.395 98.915 115.593 97.9307 115.593 96.7822V78.4072H123.12V97.5C123.12 99.7012 122.593 101.636 121.541 103.304C120.502 104.958 119.025 106.243 117.111 107.159C115.211 108.075 112.961 108.533 110.364 108.533ZM138.913 108.533C136.616 108.533 134.566 108.191 132.761 107.508C130.97 106.811 129.439 105.806 128.167 104.493C126.909 103.167 125.945 101.554 125.275 99.6533C124.606 97.7529 124.271 95.5859 124.271 93.1523V93.1318C124.271 89.9189 124.852 87.1777 126.014 84.9082C127.19 82.6387 128.851 80.9023 130.997 79.6992C133.157 78.4824 135.728 77.874 138.708 77.874C141.128 77.874 143.288 78.3115 145.189 79.1865C147.089 80.0479 148.634 81.2373 149.823 82.7549C151.013 84.2588 151.731 85.9678 151.977 87.8818L152.018 88.1279H144.573L144.491 87.9229C144.108 86.7334 143.411 85.8037 142.399 85.1338C141.401 84.4502 140.178 84.1084 138.729 84.1084C137.32 84.1084 136.11 84.457 135.099 85.1543C134.087 85.8379 133.308 86.8496 132.761 88.1895C132.228 89.5156 131.961 91.1357 131.961 93.0498V93.0703C131.961 94.5332 132.125 95.8389 132.453 96.9873C132.781 98.1221 133.253 99.0859 133.868 99.8789C134.497 100.658 135.249 101.26 136.124 101.684C136.999 102.094 137.977 102.299 139.057 102.299C140.191 102.299 141.19 102.107 142.051 101.725C142.926 101.328 143.623 100.768 144.143 100.043C144.662 99.3184 144.956 98.4639 145.024 97.4795L145.066 97.1104H139.159V91.7783H152.325V95.4902C152.325 97.5137 152.024 99.332 151.423 100.945C150.821 102.545 149.94 103.912 148.777 105.047C147.629 106.168 146.221 107.029 144.553 107.631C142.899 108.232 141.019 108.533 138.913 108.533ZM153.579 108V78.4072H161.105V90.0352H172.897V78.4072H180.423V108H172.897V96.085H161.105V108H153.579ZM185.512 108.39C184.432 108.39 183.516 108.021 182.764 107.282C182.026 106.53 181.656 105.614 181.656 104.534C181.656 103.454 182.026 102.545 182.764 101.807C183.516 101.055 184.432 100.679 185.512 100.679C186.578 100.679 187.481 101.055 188.219 101.807C188.971 102.545 189.347 103.454 189.347 104.534C189.347 105.614 188.971 106.53 188.219 107.282C187.481 108.021 186.578 108.39 185.512 108.39ZM18.2354 139V109.407H25.7617V139H18.2354ZM34.603 139V115.457H26.4409V109.407H50.271V115.457H42.1294V139H34.603ZM50.0479 121.445L51.3604 109.407H58.0459L55.0313 121.445H50.0479ZM69.5943 139.533C67.1334 139.533 64.9937 139.185 63.1754 138.487C61.3707 137.776 59.9556 136.758 58.9302 135.432C57.9185 134.105 57.3511 132.499 57.2281 130.612L57.2076 130.243H64.2007L64.2418 130.448C64.3785 131.091 64.6929 131.651 65.1851 132.13C65.691 132.595 66.3336 132.964 67.1129 133.237C67.8921 133.497 68.7603 133.627 69.7173 133.627C70.7154 133.627 71.5699 133.497 72.2808 133.237C73.0054 132.964 73.566 132.595 73.9625 132.13C74.3589 131.665 74.5572 131.125 74.5572 130.51V130.489C74.5572 129.655 74.1949 129.013 73.4703 128.562C72.7457 128.097 71.5152 127.7 69.7789 127.372L66.7437 126.777C63.8179 126.23 61.5894 125.246 60.0582 123.824C58.5406 122.389 57.7818 120.536 57.7818 118.267V118.246C57.7818 116.346 58.2877 114.698 59.2994 113.304C60.3111 111.896 61.6988 110.809 63.4625 110.043C65.2398 109.264 67.2564 108.874 69.5123 108.874C71.9869 108.874 74.0923 109.243 75.8287 109.981C77.565 110.706 78.9048 111.731 79.8482 113.058C80.8052 114.384 81.3248 115.942 81.4068 117.733L81.4273 118.164H74.4341L74.4136 117.938C74.3316 117.282 74.0787 116.722 73.6548 116.257C73.231 115.792 72.6705 115.43 71.9732 115.17C71.2759 114.91 70.4761 114.78 69.5738 114.78C68.6578 114.78 67.8785 114.91 67.2359 115.17C66.5933 115.43 66.1011 115.785 65.7593 116.236C65.4312 116.674 65.2671 117.173 65.2671 117.733V117.754C65.2671 118.547 65.6295 119.176 66.3541 119.641C67.0787 120.105 68.2339 120.488 69.8199 120.789L72.855 121.363C74.9605 121.76 76.69 122.32 78.0435 123.045C79.397 123.77 80.4019 124.692 81.0582 125.813C81.7144 126.921 82.0425 128.268 82.0425 129.854V129.874C82.0425 131.843 81.5504 133.552 80.566 135.001C79.5816 136.45 78.1597 137.571 76.3004 138.364C74.441 139.144 72.2056 139.533 69.5943 139.533ZM95.5211 139V115.457H87.359V109.407H111.189V115.457H103.047V139H95.5211ZM111.848 139V109.407H119.374V139H111.848ZM121.345 139V109.407H130.061L137.464 128.726H137.608L145.011 109.407H153.707V139H147.083V120.522H143.596L150.959 110.228L139.679 139H135.373L124.093 110.228L131.456 120.522H127.969V139H121.345ZM155.657 139V109.407H175.94V115.457H163.184V121.302H175.181V126.962H163.184V132.95H175.94V139H155.657ZM25.1055 170V146.457H16.9434V140.407H40.7734V146.457H32.6318V170H25.1055ZM53.6958 170.533C50.7154 170.533 48.1314 169.911 45.9439 168.667C43.7564 167.423 42.0679 165.659 40.8784 163.376C39.689 161.079 39.0943 158.358 39.0943 155.214V155.173C39.0943 152.028 39.689 149.314 40.8784 147.031C42.0816 144.748 43.7769 142.984 45.9644 141.74C48.1519 140.496 50.729 139.874 53.6958 139.874C56.7036 139.874 59.3013 140.496 61.4888 141.74C63.6763 142.984 65.3579 144.748 66.5337 147.031C67.7232 149.314 68.3179 152.028 68.3179 155.173V155.214C68.3179 158.358 67.7232 161.079 66.5337 163.376C65.3579 165.659 63.6763 167.423 61.4888 168.667C59.315 169.911 56.7173 170.533 53.6958 170.533ZM53.6958 164.299C55.145 164.299 56.3823 163.93 57.4077 163.191C58.4468 162.439 59.2466 161.387 59.8071 160.033C60.3677 158.666 60.648 157.06 60.648 155.214V155.173C60.648 153.313 60.3609 151.707 59.7866 150.354C59.2261 149 58.4263 147.954 57.3872 147.216C56.3482 146.478 55.1177 146.108 53.6958 146.108C52.315 146.108 51.0982 146.478 50.0454 147.216C49.0064 147.94 48.1997 148.979 47.6255 150.333C47.065 151.687 46.7847 153.3 46.7847 155.173V155.214C46.7847 157.073 47.065 158.687 47.6255 160.054C48.1997 161.407 49.0064 162.453 50.0454 163.191C51.0845 163.93 52.3013 164.299 53.6958 164.299ZM83.9087 160.361C83.9087 162.645 86.1851 163.786 90.7379 163.786C93.814 163.786 97.6763 162.624 102.325 160.3L104.417 159.192C107.588 157.579 109.379 157.23 109.79 158.146C109.899 158.393 109.954 158.68 109.954 159.008C109.954 159.322 109.817 159.65 109.544 159.992C109.284 160.32 108.928 160.689 108.477 161.1C108.026 161.496 107.5 161.92 106.898 162.371C106.296 162.809 105.661 163.246 104.991 163.684L102.981 164.935C102.297 165.345 101.559 165.748 100.766 166.145L97.772 167.621C93.0826 169.809 88.6597 170.902 84.5035 170.902C80.8668 170.902 78.0709 170.185 76.1158 168.749C74.3658 167.478 73.4908 165.837 73.4908 163.827C73.4908 161.052 74.7418 158.256 77.2437 155.439C79.4039 153.02 82.3638 150.723 86.1236 148.549C89.4048 146.648 92.9048 145.09 96.6236 143.873C100.137 142.711 102.988 142.13 105.175 142.13C105.64 142.13 106.03 142.28 106.344 142.581C106.919 143.114 107.206 143.641 107.206 144.16C107.206 146.184 106.365 147.817 104.683 149.062C103.248 150.114 101.573 150.641 99.6587 150.641C97.7447 150.641 96.3091 150.449 95.3521 150.066C91.7837 151.447 88.8853 153.3 86.6568 155.624C85.7271 156.595 85.0367 157.504 84.5855 158.352C84.1343 159.199 83.9087 159.869 83.9087 160.361ZM107.081 163.232C106.821 163.232 106.568 163.171 106.322 163.048C106.062 162.925 105.823 162.727 105.604 162.453C105.126 161.852 104.887 161.031 104.887 159.992C104.887 158.885 105.55 157.504 106.876 155.85C108.161 154.25 109.658 152.869 111.367 151.707C113.199 150.449 114.771 149.82 116.084 149.82C117.246 149.82 118.032 150.148 118.442 150.805L118.729 151.256C118.948 151.598 119.167 151.769 119.386 151.769C119.604 151.769 119.946 151.748 120.411 151.707L123.323 151.502C123.774 151.461 124.13 151.44 124.39 151.44C124.649 151.44 124.943 151.536 125.271 151.728C125.613 151.905 125.914 152.145 126.174 152.445C126.748 153.129 127.035 153.881 127.035 154.701C127.035 155.549 126.099 156.882 124.225 158.7L122.872 160.054C121.901 161.052 121.416 161.681 121.416 161.94C121.416 162.2 121.539 162.433 121.785 162.638C122.031 162.829 122.298 162.925 122.585 162.925C122.872 162.925 123.193 162.85 123.549 162.699C123.918 162.535 124.369 162.303 124.902 162.002C125.435 161.688 126.044 161.312 126.727 160.874C128.6 159.644 129.851 158.796 130.48 158.331L132.183 157.121C133.345 156.301 134.172 155.891 134.664 155.891C135.156 155.891 135.559 156 135.874 156.219C136.188 156.424 136.346 156.786 136.346 157.306C136.346 157.825 136.079 158.522 135.546 159.397C135.013 160.272 134.432 161.031 133.803 161.674C133.187 162.316 132.586 162.911 131.998 163.458C131.41 164.005 130.713 164.6 129.906 165.242C129.113 165.871 128.231 166.514 127.261 167.17C126.29 167.812 125.265 168.394 124.184 168.913C121.737 170.103 119.488 170.697 117.437 170.697C114.443 170.697 112.618 169.925 111.962 168.38C111.757 167.915 111.654 167.396 111.654 166.821C111.654 166.247 111.764 165.632 111.982 164.976C112.201 164.306 112.488 163.643 112.844 162.986C113.555 161.688 114.395 160.539 115.366 159.541C116.186 158.68 116.597 158.167 116.597 158.003C116.597 157.743 116.446 157.579 116.145 157.511C115.858 157.442 115.428 157.408 114.853 157.408C114.607 157.408 114.081 157.764 113.274 158.475L111.265 160.32C109.132 162.262 107.737 163.232 107.081 163.232ZM162.635 154.927C163.291 154.927 163.619 155.296 163.619 156.034C163.619 156.526 163.448 157.148 163.107 157.9C162.779 158.639 162.3 159.336 161.671 159.992C161.042 160.635 160.318 161.305 159.497 162.002C158.691 162.699 157.74 163.431 156.647 164.196C155.567 164.962 154.37 165.721 153.058 166.473C151.745 167.225 150.351 167.901 148.874 168.503C145.607 169.843 142.442 170.513 139.379 170.513C137.041 170.513 134.997 169.904 133.247 168.688C131.415 167.416 130.499 165.871 130.499 164.053C130.499 161.195 132.037 158.481 135.113 155.911C137.766 153.696 140.89 151.98 144.486 150.764C146.673 150.025 148.526 149.656 150.043 149.656C151.274 149.656 152.313 149.957 153.16 150.559C154.063 151.215 154.514 152.097 154.514 153.204C154.514 154.94 153.14 156.861 150.392 158.967C149.954 159.309 149.558 159.596 149.202 159.828L148.464 160.32C147.097 161.277 145.019 162.351 142.23 163.54C143.091 163.991 143.891 164.217 144.629 164.217C145.381 164.217 146.051 164.128 146.639 163.95C147.24 163.772 147.917 163.52 148.669 163.191C149.421 162.863 150.221 162.474 151.069 162.022C151.93 161.558 152.798 161.052 153.673 160.505C155.628 159.288 157.323 158.044 158.759 156.772C159.511 156.075 160.468 155.521 161.63 155.111C162.013 154.988 162.348 154.927 162.635 154.927ZM140.015 160.689L141.143 160.115C141.512 159.924 141.84 159.746 142.127 159.582C144.889 157.996 146.461 157.019 146.844 156.649C147.227 156.28 147.418 156.027 147.418 155.891C147.418 155.74 147.377 155.569 147.295 155.378C147.213 155.187 147.104 155.016 146.967 154.865C146.639 154.482 146.29 154.291 145.921 154.291C145.552 154.291 145.142 154.359 144.691 154.496C144.253 154.633 143.809 154.824 143.358 155.07C142.906 155.303 142.469 155.59 142.045 155.932C141.635 156.26 141.273 156.615 140.958 156.998C140.234 157.859 139.871 158.604 139.871 159.233C139.871 159.862 139.919 160.348 140.015 160.689ZM195.979 154.599C196.417 154.599 196.635 154.968 196.635 155.706C196.635 156.978 195.747 158.625 193.969 160.648L192.8 161.838C189.259 165.379 185.923 167.737 182.792 168.913C180.851 169.638 179.457 169.604 178.609 168.811C177.912 168.141 177.358 167.061 176.948 165.57L176.456 163.786L172.087 166.473L169.565 167.908C166.557 169.549 164.301 170.369 162.797 170.369C160.87 170.369 159.263 169.624 157.978 168.134C156.748 166.726 156.132 165.092 156.132 163.232C156.132 161.4 156.864 159.767 158.327 158.331C160.418 156.28 163.72 154.4 168.232 152.691C172.498 151.092 175.943 150.292 178.568 150.292C179.457 150.292 179.901 150.729 179.901 151.604C179.901 152.206 179.785 152.657 179.552 152.958C179.32 153.259 178.841 153.566 178.117 153.881L175.533 154.988C171.705 156.588 168.902 158.249 167.125 159.972C166.619 160.45 166.366 160.915 166.366 161.366C166.366 161.817 166.728 162.043 167.453 162.043C168.164 162.043 169.818 161.277 172.416 159.746L174.118 158.741C176.756 157.155 178.964 156.362 180.742 156.362C182.246 156.362 183.244 157.025 183.736 158.352C183.859 158.707 183.975 159.069 184.084 159.438C184.194 159.794 184.303 160.115 184.413 160.402C184.659 161.072 184.877 161.407 185.069 161.407C185.274 161.407 185.561 161.312 185.93 161.12C186.299 160.915 186.703 160.662 187.14 160.361C187.591 160.047 188.056 159.705 188.535 159.336L191.016 157.347C193.217 155.515 194.872 154.599 195.979 154.599ZM216.075 155.952C217.415 155.952 218.085 156.417 218.085 157.347C218.085 158.235 217.456 159.384 216.198 160.792L215.193 161.838C213.976 163.082 212.555 164.306 210.928 165.509C209.314 166.712 207.892 167.662 206.662 168.359C203.805 169.945 201.214 170.738 198.889 170.738C196.702 170.738 194.918 170.082 193.537 168.77C192.348 167.635 191.753 166.438 191.753 165.181C191.753 163.923 191.876 162.672 192.122 161.428C192.368 160.184 192.689 158.967 193.086 157.777C193.879 155.357 194.747 153.3 195.69 151.604C195.936 151.14 196.059 150.839 196.059 150.702H193.414C192.416 150.702 191.643 150.47 191.097 150.005C190.55 149.54 190.276 149.014 190.276 148.426C190.276 147.838 190.386 147.407 190.604 147.134C190.823 146.86 191.097 146.662 191.425 146.539C191.889 146.348 192.573 146.252 193.475 146.252L198.5 146.272C198.609 146.231 198.828 145.938 199.156 145.391L200.407 143.237C200.94 142.28 201.473 141.576 202.007 141.125C202.554 140.674 203.189 140.448 203.914 140.448C204.652 140.448 205.267 140.517 205.76 140.653C206.265 140.79 206.689 140.961 207.031 141.166C207.701 141.604 208.036 142.082 208.036 142.602C208.036 142.82 207.961 143.114 207.81 143.483L206.662 146.272L216.403 146.252C217.251 146.252 217.675 146.689 217.675 147.564C217.675 149.643 215.822 150.682 212.117 150.682L204.611 150.702C204.447 150.784 204.167 151.181 203.77 151.892L202.848 153.594C202.615 154.018 202.451 154.339 202.355 154.558L201.904 155.562C200.988 157.627 200.53 159.117 200.53 160.033C200.53 160.949 200.769 161.715 201.248 162.33C201.74 162.945 202.389 163.253 203.196 163.253C204.003 163.253 204.789 163.096 205.555 162.781C206.334 162.467 207.093 162.084 207.831 161.633C209.171 160.799 210.223 160.026 210.989 159.315C211.755 158.604 212.39 158.064 212.896 157.695C212.896 157.695 213.375 157.36 214.332 156.69C215.07 156.198 215.651 155.952 216.075 155.952ZM244.374 154.927C245.03 154.927 245.359 155.296 245.359 156.034C245.359 156.526 245.188 157.148 244.846 157.9C244.518 158.639 244.039 159.336 243.41 159.992C242.781 160.635 242.057 161.305 241.236 162.002C240.43 162.699 239.48 163.431 238.386 164.196C237.306 164.962 236.11 165.721 234.797 166.473C233.485 167.225 232.09 167.901 230.613 168.503C227.346 169.843 224.181 170.513 221.118 170.513C218.78 170.513 216.736 169.904 214.986 168.688C213.154 167.416 212.238 165.871 212.238 164.053C212.238 161.195 213.777 158.481 216.853 155.911C219.505 153.696 222.629 151.98 226.225 150.764C228.412 150.025 230.265 149.656 231.782 149.656C233.013 149.656 234.052 149.957 234.9 150.559C235.802 151.215 236.253 152.097 236.253 153.204C236.253 154.94 234.879 156.861 232.131 158.967C231.694 159.309 231.297 159.596 230.942 159.828L230.203 160.32C228.836 161.277 226.758 162.351 223.969 163.54C224.83 163.991 225.63 164.217 226.368 164.217C227.12 164.217 227.79 164.128 228.378 163.95C228.98 163.772 229.656 163.52 230.408 163.191C231.16 162.863 231.96 162.474 232.808 162.022C233.669 161.558 234.537 161.052 235.412 160.505C237.367 159.288 239.063 158.044 240.498 156.772C241.25 156.075 242.207 155.521 243.369 155.111C243.752 154.988 244.087 154.927 244.374 154.927ZM221.754 160.689L222.882 160.115C223.251 159.924 223.579 159.746 223.866 159.582C226.628 157.996 228.2 157.019 228.583 156.649C228.966 156.28 229.157 156.027 229.157 155.891C229.157 155.74 229.116 155.569 229.034 155.378C228.952 155.187 228.843 155.016 228.706 154.865C228.378 154.482 228.029 154.291 227.66 154.291C227.291 154.291 226.881 154.359 226.43 154.496C225.992 154.633 225.548 154.824 225.097 155.07C224.646 155.303 224.208 155.59 223.784 155.932C223.374 156.26 223.012 156.615 222.697 156.998C221.973 157.859 221.611 158.604 221.611 159.233C221.611 159.862 221.658 160.348 221.754 160.689ZM247.695 170.41C246.492 170.41 245.473 169.993 244.639 169.159C243.805 168.325 243.388 167.307 243.388 166.104C243.388 164.9 243.805 163.882 244.639 163.048C245.473 162.214 246.492 161.797 247.695 161.797C248.898 161.797 249.916 162.214 250.75 163.048C251.584 163.882 252.001 164.9 252.001 166.104C252.001 167.307 251.584 168.325 250.75 169.159C249.916 169.993 248.898 170.41 247.695 170.41Z" fill="#23160E"/>
</g>
<rect x="16.5" y="16.5" width="235" height="153" rx="2.5" stroke="#FF0000"/>
<line x1="16" y1="97.5" y2="97.5" stroke="#FF0000"/>
<line x1="582" y1="97.5" x2="252" y2="97.5" stroke="#FF0000"/>
<line x1="127.5" y1="16" x2="127.5" y2="-5.96244e-09" stroke="#FF0000"/>
<line x1="127.5" y1="269" x2="127.5" y2="170" stroke="#FF0000"/>
<path d="M128 13C128 14.4426 129.043 15.6738 130.466 15.911L131 16H128V13Z" fill="#FF0000"/>
<path d="M128 173C128 171.557 129.043 170.326 130.466 170.089L131 170H128V173Z" fill="#FF0000"/>
<path d="M13 97C14.4426 97 15.6738 95.957 15.911 94.534L16 94L16 97L13 97Z" fill="#FF0000"/>
<path d="M255 97C253.557 97 252.326 95.957 252.089 94.534L252 94L252 97L255 97Z" fill="#FF0000"/>
<path d="M127 13C127 14.4426 125.957 15.6738 124.534 15.911L124 16H127V13Z" fill="#FF0000"/>
<path d="M127 173C127 171.557 125.957 170.326 124.534 170.089L124 170H127V173Z" fill="#FF0000"/>
<path d="M13 98C14.4426 98 15.6738 99.043 15.911 100.466L16 101L16 98L13 98Z" fill="#FF0000"/>
<path d="M255 98C253.557 98 252.326 99.043 252.089 100.466L252 101L252 98L255 98Z" fill="#FF0000"/>
<rect x="117" y="4" width="20" height="9" rx="2" fill="#FF0000"/>
<path d="M119.568 7.91406C119.475 7.91406 119.428 7.85254 119.428 7.72949C119.428 7.56543 119.507 7.4043 119.665 7.24609C119.733 7.13281 120.012 6.95703 120.5 6.71875L120.79 6.58105C121.116 6.43457 121.325 6.36133 121.417 6.36133C121.435 6.36133 121.46 6.36133 121.493 6.36133C121.526 6.35938 121.562 6.3623 121.602 6.37012C121.697 6.38965 121.766 6.42676 121.807 6.48145C121.848 6.53418 121.872 6.5752 121.88 6.60449C121.888 6.63379 121.884 6.67773 121.868 6.73633C121.854 6.79492 121.828 6.88086 121.789 6.99414C121.75 7.10742 121.705 7.23242 121.654 7.36914C121.504 7.74219 121.389 8.02148 121.309 8.20703C120.941 9.03516 120.72 9.52051 120.644 9.66309C120.567 9.80566 120.506 9.90332 120.459 9.95605C120.414 10.0088 120.37 10.0488 120.327 10.0762C120.259 10.1172 120.192 10.1377 120.128 10.1377C120.065 10.1377 120 10.1357 119.932 10.1318C119.863 10.1299 119.793 10.125 119.721 10.1172C119.508 10.0938 119.368 10.0508 119.302 9.98828C119.286 9.97461 119.278 9.95215 119.278 9.9209C119.278 9.8584 119.297 9.78516 119.334 9.70117L120.333 7.5332L119.861 7.80859C119.736 7.87891 119.639 7.91406 119.568 7.91406ZM123.486 9.52246C123.646 9.52246 123.891 9.42578 124.221 9.23242C124.446 9.10352 124.614 8.95898 124.725 8.79883C124.784 8.71484 124.817 8.63672 124.825 8.56445C124.832 8.49219 124.821 8.44141 124.79 8.41211C124.76 8.38086 124.723 8.35742 124.678 8.3418C124.61 8.31445 124.515 8.30078 124.394 8.30078C124.273 8.30078 124.161 8.3252 124.057 8.37402C123.954 8.4209 123.877 8.44434 123.829 8.44434C123.78 8.44434 123.737 8.42969 123.7 8.40039C123.665 8.36914 123.647 8.33398 123.647 8.29492C123.647 8.21289 123.696 8.1377 123.793 8.06934C123.891 8.00098 124 7.93262 124.122 7.86426C124.245 7.7959 124.375 7.73633 124.514 7.68555C124.821 7.57227 125.116 7.51562 125.399 7.51562C125.606 7.51562 125.774 7.59766 125.903 7.76172C126.03 7.92188 126.093 8.1123 126.093 8.33301C126.093 8.58496 126.014 8.7998 125.856 8.97754C125.698 9.15527 125.51 9.31738 125.293 9.46387C125.079 9.61035 124.844 9.73828 124.59 9.84766C124.045 10.084 123.514 10.2021 122.997 10.2021C122.346 10.2021 121.945 10.0186 121.792 9.65137C121.746 9.53809 121.722 9.43652 121.722 9.34668C121.722 9.25684 121.727 9.16113 121.737 9.05957C121.749 8.95605 121.793 8.82031 121.872 8.65234C121.95 8.48242 122.05 8.31348 122.173 8.14551C122.296 7.97559 122.438 7.80859 122.598 7.64453C122.758 7.47852 122.929 7.32129 123.111 7.17285C123.292 7.02441 123.48 6.8877 123.673 6.7627C123.869 6.63574 124.062 6.52637 124.253 6.43457C124.662 6.23926 125.014 6.1416 125.311 6.1416C125.411 6.1416 125.487 6.16406 125.54 6.20898C125.663 6.31641 125.695 6.40332 125.636 6.46973C125.611 6.49902 125.579 6.5166 125.54 6.52246C125.5 6.52832 125.462 6.53711 125.425 6.54883C125.39 6.56055 125.329 6.58887 125.241 6.63379C125.153 6.67676 125.053 6.73242 124.942 6.80078C124.831 6.86914 124.71 6.94922 124.582 7.04102C124.455 7.13086 124.327 7.23047 124.198 7.33984C124.071 7.44727 123.947 7.5625 123.826 7.68555C123.707 7.80859 123.599 7.9375 123.503 8.07227C123.259 8.41211 123.137 8.73926 123.137 9.05371C123.137 9.36621 123.253 9.52246 123.486 9.52246ZM127.043 9.26758C127.107 9.24023 127.197 9.19727 127.312 9.13867C128.018 8.77734 128.404 8.57812 128.473 8.54102L128.596 8.47363C128.723 8.3916 128.781 8.32715 128.771 8.28027C128.75 8.18066 128.696 8.14062 128.61 8.16016C128.524 8.17773 128.435 8.20215 128.341 8.2334C128.249 8.26465 128.151 8.30273 128.048 8.34766C127.831 8.4375 127.641 8.52734 127.477 8.61719C126.902 8.94727 126.557 9.14746 126.439 9.21777C126.355 9.40723 126.28 9.5957 126.214 9.7832L125.859 10.7852C125.748 11.0957 125.636 11.3057 125.522 11.415C125.462 11.4756 125.394 11.5059 125.32 11.5059C125.137 11.5059 124.992 11.4414 124.887 11.3125C124.781 11.1855 124.728 11.0234 124.728 10.8262C124.728 10.6309 124.754 10.4375 124.805 10.2461C124.855 10.0566 124.926 9.86426 125.016 9.66895C125.197 9.27441 125.44 8.90625 125.745 8.56445C125.931 8.06641 126.239 7.58301 126.671 7.11426C126.935 6.8291 127.18 6.62793 127.406 6.51074C127.519 6.45215 127.616 6.42285 127.696 6.42285C127.776 6.42285 127.837 6.44141 127.878 6.47852C127.919 6.51367 127.939 6.55859 127.939 6.61328C127.939 6.66602 127.923 6.7334 127.89 6.81543C127.856 6.89746 127.811 6.98926 127.755 7.09082C127.698 7.19238 127.632 7.30078 127.556 7.41602L127.312 7.77051C127.293 7.7998 127.283 7.82617 127.283 7.84961C127.283 7.88672 127.306 7.90527 127.351 7.90527C127.401 7.90527 127.495 7.87305 127.632 7.80859L128.101 7.5918C128.511 7.40625 128.903 7.31348 129.278 7.31348C129.474 7.31348 129.657 7.40625 129.829 7.5918C130.003 7.7793 130.09 7.98047 130.09 8.19531C130.09 8.52734 129.954 8.7832 129.683 8.96289L129.319 9.20312C129.188 9.28516 129.054 9.36621 128.915 9.44629L128.493 9.67773C128.019 9.92383 127.651 10.0469 127.392 10.0469C127.134 10.0469 126.946 10.0146 126.829 9.9502C126.712 9.88574 126.653 9.79492 126.653 9.67773C126.653 9.51953 126.783 9.38281 127.043 9.26758ZM131.977 8.69922C132.118 8.92188 132.267 9.0332 132.425 9.0332C132.585 9.0332 132.887 8.88672 133.331 8.59375L133.65 8.37695C133.746 8.30859 133.826 8.25 133.89 8.20117C133.955 8.15039 134.01 8.10742 134.057 8.07227C134.163 7.99023 134.284 7.94922 134.42 7.94922C134.463 7.94922 134.504 7.96191 134.543 7.9873C134.584 8.0127 134.605 8.04785 134.605 8.09277C134.605 8.13574 134.598 8.17969 134.584 8.22461C134.573 8.26758 134.554 8.3125 134.529 8.35938C134.474 8.4707 134.421 8.55469 134.371 8.61133C134.322 8.66797 134.269 8.72461 134.212 8.78125C134.156 8.83789 134.086 8.90332 134.004 8.97754C133.924 9.05176 133.831 9.13281 133.726 9.2207C133.623 9.30664 133.511 9.39258 133.392 9.47852C133.273 9.56445 133.147 9.64746 133.014 9.72754C132.883 9.80762 132.748 9.87793 132.61 9.93848C132.301 10.0732 132.024 10.1406 131.778 10.1406C131.506 10.1406 131.284 9.99219 131.11 9.69531C131.059 9.60742 131.012 9.51562 130.969 9.41992L130.061 10.0703C129.916 10.1836 129.787 10.2402 129.671 10.2402C129.609 10.2402 129.555 10.2227 129.51 10.1875C129.424 10.1211 129.381 10.0498 129.381 9.97363C129.381 9.89746 129.396 9.84082 129.425 9.80371C129.453 9.76465 129.489 9.72559 129.534 9.68652L130.688 8.69336C130.6 8.48828 130.511 8.38574 130.421 8.38574C130.29 8.38574 130.158 8.44043 130.023 8.5498L129.894 8.65234C129.71 8.80273 129.547 8.87793 129.405 8.87793C129.348 8.87793 129.296 8.86035 129.249 8.8252C129.158 8.75684 129.112 8.67773 129.112 8.58789C129.112 8.49805 129.21 8.37109 129.408 8.20703L129.522 8.11035C129.573 8.06348 129.624 8.01758 129.677 7.97266L130.278 7.4834C130.567 7.25879 130.804 7.14648 130.99 7.14648C131.152 7.14648 131.31 7.30371 131.464 7.61816C131.509 7.70996 131.554 7.80664 131.599 7.9082L132.138 7.44531C132.451 7.18164 132.685 7.0498 132.841 7.0498C132.96 7.0498 133.07 7.08496 133.169 7.15527C133.355 7.28613 133.448 7.41113 133.448 7.53027C133.448 7.60449 133.416 7.66016 133.354 7.69727C133.342 7.70312 133.322 7.7168 133.292 7.73828L132.63 8.23047L131.977 8.69922Z" fill="#FFE2E2"/>
<g clip-path="url(#clip2_1782_8858)">
<rect x="264" y="85" width="26" height="9" rx="2" transform="rotate(90 264 85)" fill="#FF0000"/>
<path d="M258.249 86.8213C258.353 86.7764 258.449 86.7539 258.539 86.7539C258.629 86.7539 258.697 86.7764 258.744 86.8213C258.791 86.8662 258.805 86.9189 258.785 86.9795C258.777 86.9971 258.765 87.0537 258.747 87.1494C258.675 87.54 258.639 87.7959 258.639 87.917C258.639 88.0381 258.649 88.1875 258.671 88.3652C258.694 88.543 258.725 88.7109 258.762 88.8691C258.799 89.0293 258.842 89.1758 258.891 89.3086C258.939 89.4414 258.99 89.5547 259.043 89.6484C259.154 89.8477 259.254 89.9336 259.342 89.9062C259.447 89.8652 259.519 89.8037 259.556 89.7217C259.593 89.6416 259.611 89.5488 259.611 89.4434C259.611 89.209 259.587 89.0186 259.538 88.8721C259.536 88.8662 259.535 88.8545 259.535 88.8369C259.535 88.8193 259.542 88.7988 259.556 88.7754C259.571 88.7539 259.59 88.7354 259.611 88.7197C259.693 88.6631 259.779 88.6592 259.869 88.708C259.896 88.7236 259.917 88.748 259.931 88.7812L260.197 89.4111C260.375 89.8135 260.504 90.0635 260.584 90.1611C260.666 90.2607 260.725 90.3066 260.76 90.2988C260.797 90.293 260.825 90.2842 260.845 90.2725C260.866 90.2607 260.883 90.2441 260.895 90.2227C260.92 90.1816 260.931 90.124 260.927 90.0498C260.923 89.9756 260.916 89.8916 260.906 89.7979C260.898 89.7041 260.886 89.5996 260.868 89.4844C260.853 89.3711 260.832 89.252 260.807 89.127C260.781 89.002 260.752 88.8809 260.719 88.7637C260.639 88.4961 260.551 88.3125 260.455 88.2129C260.416 88.1738 260.396 88.1279 260.396 88.0752C260.396 88.0225 260.411 87.9775 260.44 87.9404C260.47 87.9033 260.504 87.8867 260.543 87.8906C260.584 87.8965 260.62 87.9102 260.651 87.9316C260.683 87.9551 260.724 87.9814 260.774 88.0107L261.105 88.1953C261.314 88.3125 261.429 88.3887 261.448 88.4238C261.468 88.4609 261.485 88.5127 261.501 88.5791C261.517 88.6455 261.532 88.7236 261.548 88.8135C261.565 88.9033 261.582 89.001 261.598 89.1064C261.613 89.2119 261.627 89.3164 261.639 89.4199C261.666 89.6641 261.68 89.8525 261.68 89.9854C261.68 90.1201 261.676 90.2578 261.668 90.3984C261.662 90.5391 261.65 90.6719 261.633 90.7969C261.594 91.0684 261.541 91.2588 261.475 91.3682C261.363 91.5518 261.194 91.6338 260.968 91.6143C260.833 91.5967 260.729 91.5537 260.654 91.4854C260.582 91.417 260.519 91.3389 260.464 91.251C260.409 91.165 260.357 91.0674 260.309 90.958C260.223 90.7725 260.128 90.5215 260.024 90.2051C260.024 90.7383 259.91 91.0684 259.682 91.1953C259.615 91.2324 259.534 91.2461 259.438 91.2363C259.259 91.2188 259.062 91.0801 258.85 90.8203C258.553 90.459 258.287 89.9629 258.053 89.332C257.822 88.709 257.707 88.1787 257.707 87.7412C257.707 87.458 257.817 87.207 258.038 86.9883C258.104 86.9238 258.175 86.8682 258.249 86.8213ZM258.249 90.9735C258.353 90.9286 258.449 90.9061 258.539 90.9061C258.629 90.9061 258.697 90.9286 258.744 90.9735C258.791 91.0184 258.805 91.0711 258.785 91.1317C258.777 91.1493 258.765 91.2059 258.747 91.3016C258.675 91.6922 258.639 91.9481 258.639 92.0692C258.639 92.1903 258.649 92.3397 258.671 92.5174C258.694 92.6952 258.725 92.8631 258.762 93.0213C258.799 93.1815 258.842 93.328 258.891 93.4608C258.939 93.5936 258.99 93.7069 259.043 93.8006C259.154 93.9998 259.254 94.0858 259.342 94.0584C259.447 94.0174 259.519 93.9559 259.556 93.8739C259.593 93.7938 259.611 93.701 259.611 93.5955C259.611 93.3612 259.587 93.1707 259.538 93.0243C259.536 93.0184 259.535 93.0067 259.535 92.9891C259.535 92.9715 259.542 92.951 259.556 92.9276C259.571 92.9061 259.59 92.8875 259.611 92.8719C259.693 92.8153 259.779 92.8114 259.869 92.8602C259.896 92.8758 259.917 92.9002 259.931 92.9334L260.197 93.5633C260.375 93.9657 260.504 94.2157 260.584 94.3133C260.666 94.4129 260.725 94.4588 260.76 94.451C260.797 94.4452 260.825 94.4364 260.845 94.4246C260.866 94.4129 260.883 94.3963 260.895 94.3748C260.92 94.3338 260.931 94.2762 260.927 94.202C260.923 94.1278 260.916 94.0438 260.906 93.95C260.898 93.8563 260.886 93.7518 260.868 93.6366C260.853 93.5233 260.832 93.4041 260.807 93.2791C260.781 93.1541 260.752 93.033 260.719 92.9159C260.639 92.6483 260.551 92.4647 260.455 92.3651C260.416 92.326 260.396 92.2801 260.396 92.2274C260.396 92.1746 260.411 92.1297 260.44 92.0926C260.47 92.0555 260.504 92.0389 260.543 92.0428C260.584 92.0487 260.62 92.0623 260.651 92.0838C260.683 92.1073 260.724 92.1336 260.774 92.1629L261.105 92.3475C261.314 92.4647 261.429 92.5409 261.448 92.576C261.468 92.6131 261.485 92.6649 261.501 92.7313C261.517 92.7977 261.532 92.8758 261.548 92.9657C261.565 93.0555 261.582 93.1532 261.598 93.2586C261.613 93.3641 261.627 93.4686 261.639 93.5721C261.666 93.8162 261.68 94.0047 261.68 94.1375C261.68 94.2723 261.676 94.41 261.668 94.5506C261.662 94.6912 261.65 94.8241 261.633 94.9491C261.594 95.2205 261.541 95.411 261.475 95.5204C261.363 95.7039 261.194 95.786 260.968 95.7664C260.833 95.7489 260.729 95.7059 260.654 95.6375C260.582 95.5692 260.519 95.4911 260.464 95.4032C260.409 95.3172 260.357 95.2196 260.309 95.1102C260.223 94.9246 260.128 94.6737 260.024 94.3573C260.024 94.8905 259.91 95.2205 259.682 95.3475C259.615 95.3846 259.534 95.3983 259.438 95.3885C259.259 95.3709 259.062 95.2323 258.85 94.9725C258.553 94.6112 258.287 94.1151 258.053 93.4842C257.822 92.8612 257.707 92.3309 257.707 91.8934C257.707 91.6102 257.817 91.3592 258.038 91.1405C258.104 91.076 258.175 91.0204 258.249 90.9735ZM261.393 99.2887C261.422 99.363 261.437 99.447 261.437 99.5407C261.437 99.6364 261.429 99.7292 261.413 99.819C261.399 99.9089 261.377 100.003 261.346 100.1C261.314 100.198 261.273 100.295 261.223 100.39C261.172 100.486 261.11 100.572 261.038 100.648C260.876 100.822 260.684 100.909 260.461 100.909C260.223 100.909 259.982 100.845 259.74 100.718C259.5 100.593 259.288 100.441 259.104 100.261C258.921 100.084 258.754 99.8776 258.604 99.6432C258.455 99.4089 258.328 99.1559 258.223 98.8845C258.002 98.32 257.892 97.7399 257.892 97.1442C257.892 96.3981 258.102 95.9528 258.521 95.8083C258.652 95.7634 258.768 95.7409 258.867 95.7409C258.984 95.7409 259.099 95.7458 259.21 95.7555C259.323 95.7673 259.446 95.8122 259.579 95.8903C259.712 95.9704 259.847 96.0729 259.983 96.1979C260.122 96.3229 260.26 96.4645 260.396 96.6227C260.535 96.7829 260.667 96.9489 260.792 97.1208C260.917 97.2946 261.033 97.4684 261.141 97.6423C261.25 97.8161 261.344 97.9802 261.422 98.1345C261.592 98.4645 261.677 98.7009 261.677 98.8434C261.677 98.8923 261.635 98.9733 261.551 99.0866C261.467 99.2018 261.414 99.2692 261.393 99.2887ZM259.324 97.0241C259.227 96.9596 259.142 96.9235 259.069 96.9157C258.999 96.9098 258.942 96.9128 258.899 96.9245C258.856 96.9362 258.822 96.9587 258.797 96.9919C258.746 97.0583 258.721 97.1823 258.721 97.3639C258.721 97.5456 258.744 97.7321 258.791 97.9235C258.838 98.1149 258.902 98.2985 258.984 98.4743C259.066 98.652 259.161 98.8171 259.269 98.9694C259.378 99.1237 259.494 99.2595 259.617 99.3766C259.883 99.6227 260.14 99.7595 260.388 99.7868C260.571 99.8063 260.693 99.7145 260.754 99.5114C260.77 99.4548 260.777 99.403 260.777 99.3561C260.777 99.3112 260.775 99.2702 260.771 99.2331C260.77 99.196 260.767 99.1579 260.763 99.1188C260.755 99.0427 260.744 98.9772 260.73 98.9225C260.508 98.4577 260.241 98.0261 259.931 97.6276C259.716 97.3522 259.514 97.1511 259.324 97.0241ZM258.732 101.463C258.76 101.528 258.803 101.618 258.861 101.733C259.223 102.438 259.422 102.825 259.459 102.893L259.526 103.016C259.608 103.143 259.673 103.202 259.72 103.192C259.819 103.17 259.859 103.117 259.84 103.031C259.822 102.945 259.798 102.855 259.767 102.761C259.735 102.669 259.697 102.572 259.652 102.468C259.562 102.251 259.473 102.061 259.383 101.897C259.053 101.323 258.853 100.977 258.782 100.86C258.593 100.776 258.404 100.701 258.217 100.634L257.215 100.28C256.904 100.168 256.694 100.056 256.585 99.9429C256.524 99.8823 256.494 99.815 256.494 99.7407C256.494 99.5571 256.559 99.4126 256.688 99.3071C256.814 99.2017 256.977 99.1489 257.174 99.1489C257.369 99.1489 257.562 99.1743 257.754 99.2251C257.943 99.2759 258.136 99.3462 258.331 99.4361C258.726 99.6177 259.094 99.8609 259.436 100.166C259.934 100.351 260.417 100.66 260.886 101.091C261.171 101.355 261.372 101.6 261.489 101.827C261.548 101.94 261.577 102.037 261.577 102.117C261.577 102.197 261.559 102.257 261.521 102.298C261.486 102.339 261.441 102.36 261.387 102.36C261.334 102.36 261.267 102.343 261.185 102.31C261.103 102.277 261.011 102.232 260.909 102.175C260.808 102.119 260.699 102.052 260.584 101.976L260.229 101.733C260.2 101.713 260.174 101.704 260.15 101.704C260.113 101.704 260.095 101.726 260.095 101.771C260.095 101.822 260.127 101.916 260.191 102.052L260.408 102.521C260.594 102.931 260.687 103.324 260.687 103.699C260.687 103.894 260.594 104.078 260.408 104.25C260.221 104.423 260.02 104.51 259.805 104.51C259.473 104.51 259.217 104.375 259.037 104.103L258.797 103.74C258.715 103.609 258.634 103.474 258.554 103.335L258.322 102.914C258.076 102.439 257.953 102.072 257.953 101.812C257.953 101.554 257.985 101.367 258.05 101.25C258.114 101.132 258.205 101.074 258.322 101.074C258.48 101.074 258.617 101.204 258.732 101.463ZM259.301 106.397C259.078 106.538 258.967 106.688 258.967 106.846C258.967 107.006 259.113 107.308 259.406 107.751L259.623 108.07C259.691 108.166 259.75 108.246 259.799 108.311C259.85 108.375 259.893 108.431 259.928 108.478C260.01 108.583 260.051 108.704 260.051 108.841C260.051 108.884 260.038 108.925 260.013 108.964C259.987 109.005 259.952 109.025 259.907 109.025C259.864 109.025 259.82 109.019 259.775 109.005C259.732 108.993 259.688 108.975 259.641 108.949C259.529 108.895 259.445 108.842 259.389 108.791C259.332 108.742 259.275 108.689 259.219 108.633C259.162 108.576 259.097 108.507 259.022 108.425C258.948 108.345 258.867 108.252 258.779 108.146C258.693 108.043 258.607 107.932 258.521 107.812C258.436 107.693 258.353 107.567 258.272 107.435C258.192 107.304 258.122 107.169 258.062 107.03C257.927 106.722 257.859 106.444 257.859 106.198C257.859 105.927 258.008 105.704 258.305 105.53C258.393 105.479 258.484 105.433 258.58 105.39L257.93 104.481C257.816 104.337 257.76 104.207 257.76 104.092C257.76 104.029 257.777 103.976 257.812 103.931C257.879 103.845 257.95 103.802 258.026 103.802C258.103 103.802 258.159 103.816 258.196 103.846C258.235 103.873 258.274 103.909 258.313 103.954L259.307 105.108C259.512 105.021 259.614 104.932 259.614 104.842C259.614 104.711 259.56 104.578 259.45 104.443L259.348 104.314C259.197 104.131 259.122 103.968 259.122 103.825C259.122 103.769 259.14 103.717 259.175 103.67C259.243 103.578 259.322 103.532 259.412 103.532C259.502 103.532 259.629 103.631 259.793 103.828L259.89 103.942C259.937 103.993 259.982 104.045 260.027 104.098L260.517 104.698C260.741 104.987 260.854 105.225 260.854 105.41C260.854 105.572 260.696 105.73 260.382 105.885C260.29 105.93 260.193 105.975 260.092 106.02L260.555 106.559C260.818 106.871 260.95 107.105 260.95 107.262C260.95 107.381 260.915 107.49 260.845 107.59C260.714 107.775 260.589 107.868 260.47 107.868C260.396 107.868 260.34 107.837 260.303 107.774C260.297 107.763 260.283 107.742 260.262 107.713L259.77 107.051L259.301 106.397Z" fill="#FFE2E2"/>
</g>
<rect x="116" y="173" width="22" height="9" rx="2" fill="#FF0000"/>
<path d="M121.111 175.988C120.951 175.988 120.705 176.084 120.373 176.275C120.152 176.404 119.984 176.55 119.869 176.712C119.811 176.796 119.777 176.874 119.77 176.946C119.762 177.019 119.773 177.07 119.805 177.102C119.836 177.131 119.873 177.154 119.916 177.172C119.986 177.197 120.081 177.21 120.2 177.21C120.319 177.21 120.432 177.187 120.537 177.14C120.643 177.091 120.72 177.066 120.769 177.066C120.817 177.066 120.859 177.082 120.895 177.113C120.932 177.145 120.95 177.18 120.95 177.219C120.95 177.299 120.9 177.374 120.801 177.444C120.703 177.513 120.593 177.581 120.47 177.649C120.349 177.716 120.22 177.774 120.083 177.825C119.778 177.938 119.483 177.995 119.198 177.995C118.991 177.995 118.822 177.912 118.691 177.746C118.566 177.588 118.504 177.398 118.504 177.178C118.504 176.926 118.583 176.711 118.741 176.533C118.899 176.355 119.086 176.193 119.301 176.047C119.518 175.9 119.752 175.772 120.004 175.663C120.549 175.427 121.08 175.309 121.598 175.309C122.25 175.309 122.652 175.492 122.805 175.859C122.852 175.973 122.875 176.075 122.875 176.167C122.875 176.257 122.869 176.354 122.857 176.457C122.848 176.559 122.802 176.695 122.72 176.867C122.64 177.039 122.535 177.213 122.406 177.389C122.277 177.562 122.13 177.736 121.964 177.91C121.798 178.082 121.62 178.246 121.431 178.402C121.243 178.559 121.049 178.704 120.848 178.839C120.646 178.972 120.447 179.087 120.25 179.185C119.83 179.394 119.473 179.498 119.178 179.498C119.082 179.498 119.014 179.465 118.973 179.398C118.887 179.256 118.947 179.116 119.154 178.979C119.186 178.958 119.219 178.938 119.254 178.921C119.291 178.901 119.353 178.868 119.438 178.821C119.524 178.772 119.621 178.714 119.729 178.646C119.838 178.577 119.954 178.499 120.077 178.411C120.2 178.323 120.322 178.228 120.443 178.124C120.566 178.021 120.685 177.91 120.798 177.793C120.913 177.676 121.017 177.553 121.108 177.424C121.343 177.094 121.46 176.772 121.46 176.46C121.46 176.146 121.344 175.988 121.111 175.988ZM125.618 175.988C125.457 175.988 125.211 176.084 124.879 176.275C124.659 176.404 124.491 176.55 124.375 176.712C124.317 176.796 124.284 176.874 124.276 176.946C124.268 177.019 124.28 177.07 124.311 177.102C124.342 177.131 124.379 177.154 124.422 177.172C124.493 177.197 124.587 177.21 124.707 177.21C124.826 177.21 124.938 177.187 125.043 177.14C125.149 177.091 125.226 177.066 125.275 177.066C125.324 177.066 125.366 177.082 125.401 177.113C125.438 177.145 125.457 177.18 125.457 177.219C125.457 177.299 125.407 177.374 125.307 177.444C125.209 177.513 125.099 177.581 124.976 177.649C124.855 177.716 124.726 177.774 124.589 177.825C124.285 177.938 123.99 177.995 123.705 177.995C123.498 177.995 123.329 177.912 123.198 177.746C123.073 177.588 123.01 177.398 123.01 177.178C123.01 176.926 123.089 176.711 123.248 176.533C123.406 176.355 123.592 176.193 123.807 176.047C124.024 175.9 124.258 175.772 124.51 175.663C125.055 175.427 125.586 175.309 126.104 175.309C126.756 175.309 127.159 175.492 127.311 175.859C127.358 175.973 127.381 176.075 127.381 176.167C127.381 176.257 127.375 176.354 127.364 176.457C127.354 176.559 127.308 176.695 127.226 176.867C127.146 177.039 127.041 177.213 126.913 177.389C126.784 177.562 126.636 177.736 126.47 177.91C126.304 178.082 126.126 178.246 125.937 178.402C125.749 178.559 125.555 178.704 125.354 178.839C125.153 178.972 124.954 179.087 124.756 179.185C124.336 179.394 123.979 179.498 123.684 179.498C123.588 179.498 123.52 179.465 123.479 179.398C123.393 179.256 123.454 179.116 123.661 178.979C123.692 178.958 123.725 178.938 123.76 178.921C123.797 178.901 123.859 178.868 123.945 178.821C124.031 178.772 124.127 178.714 124.235 178.646C124.344 178.577 124.46 178.499 124.583 178.411C124.707 178.323 124.829 178.228 124.95 178.124C125.073 178.021 125.191 177.91 125.304 177.793C125.419 177.676 125.523 177.553 125.615 177.424C125.849 177.094 125.966 176.772 125.966 176.46C125.966 176.146 125.85 175.988 125.618 175.988ZM128.035 178.268C128.1 178.24 128.189 178.197 128.305 178.139C129.01 177.777 129.396 177.578 129.465 177.541L129.588 177.474C129.715 177.392 129.773 177.327 129.764 177.28C129.742 177.181 129.688 177.141 129.602 177.16C129.517 177.178 129.427 177.202 129.333 177.233C129.241 177.265 129.144 177.303 129.04 177.348C128.823 177.438 128.633 177.527 128.469 177.617C127.894 177.947 127.549 178.147 127.432 178.218C127.348 178.407 127.272 178.596 127.206 178.783L126.852 179.785C126.74 180.096 126.628 180.306 126.515 180.415C126.454 180.476 126.387 180.506 126.312 180.506C126.129 180.506 125.984 180.441 125.879 180.312C125.773 180.186 125.721 180.023 125.721 179.826C125.721 179.631 125.746 179.438 125.797 179.246C125.848 179.057 125.918 178.864 126.008 178.669C126.189 178.274 126.433 177.906 126.737 177.564C126.923 177.066 127.231 176.583 127.663 176.114C127.927 175.829 128.172 175.628 128.398 175.511C128.512 175.452 128.608 175.423 128.688 175.423C128.769 175.423 128.829 175.441 128.87 175.479C128.911 175.514 128.932 175.559 128.932 175.613C128.932 175.666 128.915 175.733 128.882 175.815C128.849 175.897 128.804 175.989 128.747 176.091C128.69 176.192 128.624 176.301 128.548 176.416L128.305 176.771C128.285 176.8 128.275 176.826 128.275 176.85C128.275 176.887 128.298 176.905 128.343 176.905C128.394 176.905 128.487 176.873 128.624 176.809L129.093 176.592C129.503 176.406 129.895 176.313 130.27 176.313C130.466 176.313 130.649 176.406 130.821 176.592C130.995 176.779 131.082 176.98 131.082 177.195C131.082 177.527 130.946 177.783 130.675 177.963L130.311 178.203C130.181 178.285 130.046 178.366 129.907 178.446L129.485 178.678C129.011 178.924 128.644 179.047 128.384 179.047C128.126 179.047 127.938 179.015 127.821 178.95C127.704 178.886 127.645 178.795 127.645 178.678C127.645 178.52 127.775 178.383 128.035 178.268ZM132.969 177.699C133.11 177.922 133.259 178.033 133.417 178.033C133.578 178.033 133.879 177.887 134.323 177.594L134.642 177.377C134.738 177.309 134.818 177.25 134.882 177.201C134.947 177.15 135.002 177.107 135.049 177.072C135.155 176.99 135.276 176.949 135.413 176.949C135.456 176.949 135.497 176.962 135.536 176.987C135.577 177.013 135.597 177.048 135.597 177.093C135.597 177.136 135.59 177.18 135.577 177.225C135.565 177.268 135.546 177.312 135.521 177.359C135.466 177.471 135.414 177.555 135.363 177.611C135.314 177.668 135.261 177.725 135.205 177.781C135.148 177.838 135.079 177.903 134.997 177.978C134.916 178.052 134.824 178.133 134.718 178.221C134.615 178.307 134.503 178.393 134.384 178.479C134.265 178.564 134.139 178.647 134.006 178.728C133.875 178.808 133.741 178.878 133.602 178.938C133.293 179.073 133.016 179.141 132.77 179.141C132.498 179.141 132.276 178.992 132.102 178.695C132.051 178.607 132.004 178.516 131.961 178.42L131.053 179.07C130.909 179.184 130.779 179.24 130.664 179.24C130.601 179.24 130.547 179.223 130.502 179.188C130.416 179.121 130.373 179.05 130.373 178.974C130.373 178.897 130.388 178.841 130.417 178.804C130.445 178.765 130.481 178.726 130.526 178.687L131.68 177.693C131.592 177.488 131.503 177.386 131.414 177.386C131.283 177.386 131.15 177.44 131.015 177.55L130.886 177.652C130.703 177.803 130.539 177.878 130.397 177.878C130.34 177.878 130.289 177.86 130.242 177.825C130.15 177.757 130.104 177.678 130.104 177.588C130.104 177.498 130.203 177.371 130.4 177.207L130.514 177.11C130.565 177.063 130.617 177.018 130.669 176.973L131.27 176.483C131.559 176.259 131.796 176.146 131.982 176.146C132.144 176.146 132.302 176.304 132.456 176.618C132.501 176.71 132.546 176.807 132.591 176.908L133.13 176.445C133.443 176.182 133.677 176.05 133.833 176.05C133.953 176.05 134.062 176.085 134.162 176.155C134.347 176.286 134.44 176.411 134.44 176.53C134.44 176.604 134.409 176.66 134.346 176.697C134.334 176.703 134.314 176.717 134.285 176.738L133.623 177.23L132.969 177.699Z" fill="#FFE2E2"/>
<g clip-path="url(#clip3_1782_8858)">
<rect x="4" y="108" width="20" height="9" rx="2" transform="rotate(-90 4 108)" fill="#FF0000"/>
<path d="M7.91406 105.432C7.91406 105.525 7.85254 105.572 7.72949 105.572C7.56543 105.572 7.4043 105.493 7.24609 105.335C7.13281 105.267 6.95703 104.988 6.71875 104.5L6.58105 104.21C6.43457 103.884 6.36133 103.675 6.36133 103.583C6.36133 103.565 6.36133 103.54 6.36133 103.507C6.35937 103.474 6.3623 103.437 6.37012 103.398C6.38965 103.303 6.42676 103.234 6.48145 103.193C6.53418 103.152 6.5752 103.128 6.60449 103.12C6.63379 103.112 6.67773 103.116 6.73633 103.132C6.79492 103.146 6.88086 103.172 6.99414 103.211C7.10742 103.25 7.23242 103.295 7.36914 103.346C7.74219 103.496 8.02148 103.611 8.20703 103.691C9.03516 104.059 9.52051 104.28 9.66309 104.356C9.80566 104.433 9.90332 104.494 9.95605 104.541C10.0088 104.586 10.0488 104.63 10.0762 104.673C10.1172 104.741 10.1377 104.808 10.1377 104.872C10.1377 104.935 10.1357 105 10.1318 105.068C10.1299 105.137 10.125 105.207 10.1172 105.279C10.0937 105.492 10.0508 105.632 9.98828 105.698C9.97461 105.714 9.95215 105.722 9.9209 105.722C9.8584 105.722 9.78516 105.703 9.70117 105.666L7.5332 104.667L7.80859 105.139C7.87891 105.264 7.91406 105.361 7.91406 105.432ZM9.52246 101.514C9.52246 101.354 9.42578 101.109 9.23242 100.779C9.10352 100.554 8.95898 100.386 8.79883 100.275C8.71484 100.216 8.63672 100.183 8.56445 100.175C8.49219 100.167 8.44141 100.179 8.41211 100.21C8.38086 100.24 8.35742 100.277 8.3418 100.322C8.31445 100.39 8.30078 100.485 8.30078 100.606C8.30078 100.727 8.3252 100.839 8.37402 100.943C8.4209 101.046 8.44434 101.123 8.44434 101.171C8.44434 101.22 8.42969 101.263 8.40039 101.3C8.36914 101.335 8.33398 101.353 8.29492 101.353C8.21289 101.353 8.1377 101.304 8.06934 101.207C8.00098 101.109 7.93262 101 7.86426 100.878C7.7959 100.755 7.73633 100.625 7.68555 100.486C7.57227 100.179 7.51562 99.8843 7.51562 99.6011C7.51562 99.3941 7.59766 99.2261 7.76172 99.0972C7.92187 98.9702 8.1123 98.9068 8.33301 98.9068C8.58496 98.9068 8.7998 98.9859 8.97754 99.1441C9.15527 99.3023 9.31738 99.4898 9.46387 99.7066C9.61035 99.9214 9.73828 100.156 9.84766 100.41C10.084 100.955 10.2021 101.486 10.2021 102.003C10.2021 102.654 10.0186 103.055 9.65137 103.208C9.53809 103.254 9.43652 103.278 9.34668 103.278C9.25684 103.278 9.16113 103.273 9.05957 103.263C8.95605 103.251 8.82031 103.207 8.65234 103.128C8.48242 103.05 8.31348 102.95 8.14551 102.827C7.97559 102.704 7.80859 102.562 7.64453 102.402C7.47852 102.242 7.32129 102.071 7.17285 101.889C7.02441 101.708 6.8877 101.52 6.7627 101.327C6.63574 101.131 6.52637 100.938 6.43457 100.747C6.23926 100.338 6.1416 99.9859 6.1416 99.689C6.1416 99.5894 6.16406 99.5132 6.20898 99.4605C6.31641 99.3374 6.40332 99.3052 6.46973 99.3638C6.49902 99.3892 6.5166 99.4214 6.52246 99.4605C6.52832 99.4995 6.53711 99.5376 6.54883 99.5747C6.56055 99.6099 6.58887 99.6714 6.63379 99.7593C6.67676 99.8472 6.73242 99.9468 6.80078 100.058C6.86914 100.169 6.94922 100.29 7.04102 100.418C7.13086 100.545 7.23047 100.673 7.33984 100.802C7.44727 100.929 7.5625 101.053 7.68555 101.174C7.80859 101.293 7.9375 101.401 8.07227 101.497C8.41211 101.741 8.73926 101.863 9.05371 101.863C9.36621 101.863 9.52246 101.747 9.52246 101.514ZM9.26758 97.9571C9.24023 97.8926 9.19727 97.8028 9.13867 97.6875C8.77734 96.9825 8.57812 96.5957 8.54102 96.5274L8.47363 96.4043C8.3916 96.2774 8.32715 96.2188 8.28027 96.2286C8.18066 96.25 8.14062 96.3037 8.16016 96.3897C8.17773 96.4756 8.20215 96.5655 8.2334 96.6592C8.26465 96.751 8.30273 96.8487 8.34766 96.9522C8.4375 97.169 8.52734 97.3594 8.61719 97.5235C8.94727 98.0977 9.14746 98.4434 9.21777 98.5606C9.40723 98.6446 9.5957 98.7198 9.7832 98.7862L10.7852 99.1407C11.0957 99.252 11.3057 99.3643 11.415 99.4776C11.4756 99.5381 11.5059 99.6055 11.5059 99.6797C11.5059 99.8633 11.4414 100.008 11.3125 100.113C11.1855 100.219 11.0234 100.272 10.8262 100.272C10.6309 100.272 10.4375 100.246 10.2461 100.195C10.0566 100.145 9.86426 100.074 9.66895 99.9844C9.27441 99.8028 8.90625 99.5596 8.56445 99.2549C8.06641 99.0694 7.58301 98.7608 7.11426 98.3291C6.8291 98.0655 6.62793 97.8204 6.51074 97.5938C6.45215 97.4805 6.42285 97.3838 6.42285 97.3038C6.42285 97.2237 6.44141 97.1631 6.47852 97.1221C6.51367 97.0811 6.55859 97.0606 6.61328 97.0606C6.66602 97.0606 6.7334 97.0772 6.81543 97.1104C6.89746 97.1436 6.98926 97.1885 7.09082 97.2452C7.19238 97.3018 7.30078 97.3682 7.41602 97.4444L7.77051 97.6875C7.7998 97.7071 7.82617 97.7168 7.84961 97.7168C7.88672 97.7168 7.90527 97.6944 7.90527 97.6495C7.90527 97.5987 7.87305 97.5049 7.80859 97.3682L7.5918 96.8995C7.40625 96.4893 7.31348 96.0967 7.31348 95.7217C7.31348 95.5264 7.40625 95.3428 7.5918 95.1709C7.7793 94.9971 7.98047 94.9102 8.19531 94.9102C8.52734 94.9102 8.7832 95.0459 8.96289 95.3174L9.20312 95.6807C9.28516 95.8116 9.36621 95.9463 9.44629 96.085L9.67773 96.5069C9.92383 96.9815 10.0469 97.3487 10.0469 97.6084C10.0469 97.8662 10.0146 98.0537 9.95019 98.1709C9.88574 98.2881 9.79492 98.3467 9.67773 98.3467C9.51953 98.3467 9.38281 98.2168 9.26758 97.9571ZM8.69922 93.023C8.92187 92.8824 9.0332 92.733 9.0332 92.5748C9.0332 92.4146 8.88672 92.1129 8.59375 91.6695L8.37695 91.3502C8.30859 91.2545 8.25 91.1744 8.20117 91.1099C8.15039 91.0455 8.10742 90.9898 8.07226 90.9429C7.99023 90.8375 7.94922 90.7164 7.94922 90.5796C7.94922 90.5367 7.96191 90.4957 7.9873 90.4566C8.01269 90.4156 8.04785 90.3951 8.09277 90.3951C8.13574 90.3951 8.17969 90.4019 8.22461 90.4156C8.26758 90.4273 8.3125 90.4459 8.35937 90.4712C8.4707 90.5259 8.55469 90.5787 8.61133 90.6295C8.66797 90.6783 8.72461 90.731 8.78125 90.7877C8.83789 90.8443 8.90332 90.9136 8.97754 90.9957C9.05176 91.0757 9.13281 91.1685 9.2207 91.274C9.30664 91.3775 9.39258 91.4888 9.47851 91.608C9.56445 91.7271 9.64746 91.8531 9.72754 91.9859C9.80762 92.1168 9.87793 92.2515 9.93848 92.3902C10.0732 92.6988 10.1406 92.9761 10.1406 93.2222C10.1406 93.4937 9.99219 93.7164 9.69531 93.8902C9.60742 93.941 9.51562 93.9879 9.41992 94.0308L10.0703 94.939C10.1836 95.0836 10.2402 95.2134 10.2402 95.3287C10.2402 95.3912 10.2227 95.4449 10.1875 95.4898C10.1211 95.5757 10.0498 95.6187 9.97363 95.6187C9.89746 95.6187 9.84082 95.6041 9.80371 95.5748C9.76465 95.5474 9.72559 95.5113 9.68652 95.4664L8.69336 94.3121C8.48828 94.4 8.38574 94.4888 8.38574 94.5787C8.38574 94.7095 8.44043 94.8423 8.5498 94.9771L8.65234 95.106C8.80273 95.2896 8.87793 95.4527 8.87793 95.5953C8.87793 95.6519 8.86035 95.7037 8.82519 95.7505C8.75684 95.8423 8.67773 95.8882 8.58789 95.8882C8.49805 95.8882 8.37109 95.7896 8.20703 95.5923L8.11035 95.4781C8.06348 95.4273 8.01758 95.3755 7.97266 95.3228L7.4834 94.7222C7.25879 94.4332 7.14648 94.1959 7.14648 94.0103C7.14648 93.8482 7.30371 93.69 7.61816 93.5357C7.70996 93.4908 7.80664 93.4459 7.9082 93.4009L7.44531 92.8619C7.18164 92.5494 7.0498 92.315 7.0498 92.1587C7.0498 92.0396 7.08496 91.9302 7.15527 91.8306C7.28613 91.6451 7.41113 91.5523 7.53027 91.5523C7.60449 91.5523 7.66016 91.5836 7.69726 91.6461C7.70312 91.6578 7.7168 91.6783 7.73828 91.7076L8.23047 92.3697L8.69922 93.023Z" fill="#FFE2E2"/>
</g>
</g>
<defs>
<clipPath id="clip0_1782_8858">
<rect width="582" height="269" fill="white"/>
</clipPath>
<clipPath id="clip1_1782_8858">
<rect x="16" y="16" width="236" height="154" rx="3" fill="white"/>
</clipPath>
<clipPath id="clip2_1782_8858">
<rect x="264" y="85" width="26" height="9" rx="2" transform="rotate(90 264 85)" fill="white"/>
</clipPath>
<clipPath id="clip3_1782_8858">
<rect x="4" y="108" width="20" height="9" rx="2" transform="rotate(-90 4 108)" fill="white"/>
</clipPath>
</defs>
</svg>
