<svg width="15" height="15" viewBox="0 0 15 15" fill="none" xmlns="http://www.w3.org/2000/svg">
<path fill-rule="evenodd" clip-rule="evenodd" d="M5.87882 2.1612C6.60234 0.920877 8.39446 0.920877 9.11796 2.1612L13.5042 9.68043C14.2333 10.9304 13.3317 12.5002 11.8846 12.5002H3.1122C1.66509 12.5002 0.763457 10.9304 1.49261 9.68043L5.87882 2.1612ZM7.49903 5.00018C7.84421 5.00018 8.12403 5.28001 8.12403 5.62518V7.50018C8.12403 7.84537 7.84421 8.12518 7.49903 8.12518C7.15384 8.12518 6.87403 7.84537 6.87403 7.50018V5.62518C6.87403 5.28001 7.15384 5.00018 7.49903 5.00018ZM6.71778 9.37518C6.71778 8.94368 7.06753 8.59393 7.49903 8.59393C7.93053 8.59393 8.28028 8.94368 8.28028 9.37518C8.28028 9.80668 7.93053 10.1564 7.49903 10.1564C7.06753 10.1564 6.71778 9.80668 6.71778 9.37518Z" fill="#9F0712"/>
</svg>
