<svg width="680" height="212" viewBox="0 0 680 212" fill="none" xmlns="http://www.w3.org/2000/svg">
<path d="M26.3125 118.291V208.558H0V57.5232H25.3307V81.6141H27.2943C30.7634 73.7477 36.1634 67.4545 43.4942 62.7347C50.8251 57.9493 60.1523 55.5566 71.4758 55.5566C81.7521 55.5566 90.7193 57.6871 98.3774 61.9481C106.036 66.1435 111.992 72.4694 116.246 80.9258C120.566 89.3822 122.726 99.9363 122.726 112.588V208.558H96.4138V115.145C96.4138 103.673 93.4356 94.7576 87.4793 88.3989C81.5884 81.9746 73.4721 78.7625 63.1304 78.7625C56.0614 78.7625 49.7451 80.303 44.1815 83.384C38.6179 86.4651 34.2325 90.9555 31.0252 96.8553C27.8834 102.755 26.3125 109.9 26.3125 118.291Z" fill="url(#paint0_linear_2027_8631)"/>
<path d="M130.171 208.558V57.5232H156.484V208.558H130.171ZM143.524 33.334C138.746 33.334 134.622 31.6951 131.153 28.4174C127.75 25.1398 126.048 21.2066 126.048 16.6178C126.048 12.0946 127.75 8.19419 131.153 4.91651C134.622 1.63884 138.746 0 143.524 0C148.302 0 152.393 1.63884 155.797 4.91651C159.266 8.19419 161 12.0946 161 16.6178C161 21.2066 159.266 25.1398 155.797 28.4174C152.393 31.6951 148.302 33.334 143.524 33.334Z" fill="url(#paint1_linear_2027_8631)"/>
<path d="M188.572 155.46L188.278 123.109H193.187L256.219 57.5232H288.128L218.714 129.501H215.474L188.572 155.46ZM164.223 208.558V7.17811H190.536V208.558H164.223ZM259.852 208.558L203.3 135.302L221.758 116.915L292.546 208.558H259.852Z" fill="url(#paint2_linear_2027_8631)"/>
<path d="M339.558 211.705C325.682 211.705 313.54 208.46 303.133 201.97C292.726 195.415 284.642 186.303 278.882 174.635C273.122 162.966 270.242 149.364 270.242 133.827C270.242 118.095 273.122 104.361 278.882 92.6271C284.642 80.893 292.726 71.7811 303.133 65.2913C313.54 58.8015 325.682 55.5566 339.558 55.5566C353.434 55.5566 365.576 58.8015 375.983 65.2913C386.391 71.7811 394.474 80.893 400.234 92.6271C405.994 104.361 408.874 118.095 408.874 133.827C408.874 149.364 405.994 162.966 400.234 174.635C394.474 186.303 386.391 195.415 375.983 201.97C365.576 208.46 353.434 211.705 339.558 211.705ZM339.558 188.892C349.376 188.892 357.427 186.369 363.711 181.321C370.06 176.208 374.772 169.489 377.849 161.163C380.925 152.772 382.463 143.628 382.463 133.729C382.463 123.896 380.925 114.784 377.849 106.393C374.772 97.9369 370.06 91.1521 363.711 86.039C357.427 80.8602 349.376 78.2709 339.558 78.2709C329.805 78.2709 321.755 80.8602 315.406 86.039C309.057 91.1521 304.344 97.9369 301.268 106.393C298.191 114.784 296.653 123.896 296.653 133.729C296.653 143.628 298.191 152.772 301.268 161.163C304.344 169.489 309.057 176.208 315.406 181.321C321.755 186.369 329.805 188.892 339.558 188.892Z" fill="url(#paint3_linear_2027_8631)"/>
<path d="M436.029 7.17811V208.558H409.716V7.17811H436.029Z" fill="url(#paint4_linear_2027_8631)"/>
<path d="M487.95 212C478.394 212 469.721 210.197 461.932 206.592C454.208 202.986 448.056 197.775 443.474 190.957C438.958 184.074 436.699 175.683 436.699 165.785C436.699 157.197 438.369 150.183 441.707 144.742C445.11 139.236 449.627 134.909 455.256 131.763C460.885 128.616 467.136 126.256 474.008 124.683C480.881 123.109 487.852 121.897 494.921 121.045C504.019 119.865 511.383 118.947 517.012 118.291C522.706 117.636 526.862 116.554 529.481 115.046C532.099 113.539 533.408 110.949 533.408 107.278V106.492C533.408 97.3797 530.888 90.2999 525.848 85.2523C520.808 80.2047 513.248 77.6809 503.168 77.6809C492.695 77.6809 484.481 79.9753 478.525 84.564C472.568 89.1528 468.379 94.1676 465.957 99.6085L441.216 92.5288C444.816 83.3513 449.823 76.0748 456.238 70.6994C462.717 65.2585 469.95 61.3909 477.936 59.0965C485.986 56.7366 494.201 55.5566 502.579 55.5566C508.012 55.5566 514.001 56.2121 520.546 57.5232C527.091 58.7687 533.31 61.227 539.2 64.898C545.157 68.5034 550.066 73.846 553.928 80.9258C557.789 87.94 559.72 97.1831 559.72 108.655V208.558H533.801V188.007H532.622C530.921 191.547 528.204 195.186 524.473 198.922C520.742 202.593 515.866 205.707 509.844 208.263C503.823 210.754 496.524 212 487.95 212ZM492.859 189.777C501.564 189.777 508.928 188.073 514.95 184.664C520.972 181.255 525.553 176.831 528.695 171.39C531.902 165.949 533.506 160.147 533.506 153.985V133.631C532.459 134.745 530.364 135.761 527.222 136.679C524.081 137.597 520.481 138.383 516.422 139.039C512.43 139.694 508.503 140.284 504.641 140.809C500.844 141.268 497.703 141.661 495.215 141.989C489.39 142.776 483.99 144.021 479.016 145.725C474.106 147.43 470.146 149.954 467.136 153.297C464.19 156.575 462.717 160.999 462.717 166.571C462.717 174.241 465.565 180.043 471.259 183.976C476.954 187.844 484.154 189.777 492.859 189.777Z" fill="url(#paint5_linear_2027_8631)"/>
<path d="M677.153 92.9221L653.393 98.2319C652.215 94.7576 650.382 91.4471 647.895 88.3006C645.473 85.0884 642.168 82.4335 637.978 80.3358C633.789 78.2381 628.488 77.1892 622.073 77.1892C613.302 77.1892 605.971 79.1886 600.081 83.1874C594.255 87.1861 591.342 92.2665 591.342 98.4286C591.342 103.804 593.339 108.098 597.331 111.31C601.324 114.522 607.608 117.177 616.182 119.275L639.353 124.781C653.033 127.993 663.211 132.975 669.887 139.727C676.629 146.414 680 155.067 680 165.686C680 174.536 677.447 182.435 672.342 189.384C667.302 196.267 660.266 201.708 651.233 205.707C642.2 209.706 631.695 211.705 619.717 211.705C603.55 211.705 590.295 208.231 579.953 201.282C569.612 194.268 563.132 184.205 560.514 171.095L585.746 166.178C587.71 173.979 591.506 179.846 597.135 183.779C602.83 187.647 610.259 189.581 619.422 189.581C629.633 189.581 637.749 187.417 643.771 183.091C649.858 178.764 652.935 173.52 653 167.358C652.935 162.376 651.102 158.213 647.502 154.87C643.968 151.461 638.502 148.905 631.106 147.2L605.775 141.399C591.833 138.187 581.557 133.106 574.946 126.158C568.401 119.143 565.128 110.359 565.128 99.8052C565.128 91.0866 567.55 83.4168 572.394 76.7959C577.303 70.1095 584.044 64.898 592.619 61.1614C601.193 57.4249 610.979 55.5566 621.975 55.5566C637.553 55.5566 649.826 58.9654 658.793 65.7829C667.76 72.6005 673.88 81.6469 677.153 92.9221Z" fill="url(#paint6_linear_2027_8631)"/>
<defs>
<linearGradient id="paint0_linear_2027_8631" x1="336.324" y1="-4.69725" x2="336.324" y2="291.74" gradientUnits="userSpaceOnUse">
<stop stop-color="#0D0D0D"/>
<stop offset="1" stop-color="#1D1D1D"/>
</linearGradient>
<linearGradient id="paint1_linear_2027_8631" x1="336.324" y1="-4.69725" x2="336.324" y2="291.74" gradientUnits="userSpaceOnUse">
<stop stop-color="#0D0D0D"/>
<stop offset="1" stop-color="#1D1D1D"/>
</linearGradient>
<linearGradient id="paint2_linear_2027_8631" x1="336.324" y1="-4.69725" x2="336.324" y2="291.74" gradientUnits="userSpaceOnUse">
<stop stop-color="#0D0D0D"/>
<stop offset="1" stop-color="#1D1D1D"/>
</linearGradient>
<linearGradient id="paint3_linear_2027_8631" x1="336.324" y1="-4.69725" x2="336.324" y2="291.74" gradientUnits="userSpaceOnUse">
<stop stop-color="#0D0D0D"/>
<stop offset="1" stop-color="#1D1D1D"/>
</linearGradient>
<linearGradient id="paint4_linear_2027_8631" x1="336.324" y1="-4.69725" x2="336.324" y2="291.74" gradientUnits="userSpaceOnUse">
<stop stop-color="#0D0D0D"/>
<stop offset="1" stop-color="#1D1D1D"/>
</linearGradient>
<linearGradient id="paint5_linear_2027_8631" x1="336.324" y1="-4.69725" x2="336.324" y2="291.74" gradientUnits="userSpaceOnUse">
<stop stop-color="#0D0D0D"/>
<stop offset="1" stop-color="#1D1D1D"/>
</linearGradient>
<linearGradient id="paint6_linear_2027_8631" x1="336.324" y1="-4.69725" x2="336.324" y2="291.74" gradientUnits="userSpaceOnUse">
<stop stop-color="#0D0D0D"/>
<stop offset="1" stop-color="#1D1D1D"/>
</linearGradient>
</defs>
</svg>
