<svg width="15" height="15" viewBox="0 0 15 15" fill="none" xmlns="http://www.w3.org/2000/svg">
<path d="M7.19219 1.2884C7.39394 1.2372 7.60562 1.2372 7.80737 1.2884C8.04119 1.34776 8.24156 1.49227 8.40125 1.60762L8.44581 1.63997L13.8011 5.47359C14.0817 5.6745 14.1466 6.06512 13.9457 6.3458C13.7448 6.62642 13.3542 6.6913 13.0735 6.49042L12.4997 6.07967V10.6927C12.4998 11.0221 12.5 11.3064 12.4809 11.5405C12.4607 11.7875 12.4158 12.0334 12.2953 12.2699C12.1156 12.6227 11.829 12.9098 11.4762 13.0895C11.2397 13.21 10.9939 13.2543 10.7469 13.2745C10.5127 13.2936 10.2285 13.294 9.89906 13.294H8.73694C8.74444 13.2387 8.74975 13.1824 8.74975 13.1249V9.99992C8.74975 9.30961 8.19012 8.74992 7.49975 8.74992C6.8095 8.74999 6.24978 9.30961 6.24978 9.99992V13.1249C6.24978 13.1824 6.25512 13.2387 6.26262 13.294H5.10049C4.77114 13.294 4.48675 13.2936 4.25271 13.2745C4.00571 13.2543 3.75974 13.21 3.52334 13.0895C3.17061 12.9098 2.88398 12.6226 2.70425 12.2699C2.58379 12.0334 2.53889 11.7875 2.5187 11.5405C2.49959 11.3064 2.49977 11.0221 2.49978 10.6927V6.07967L1.92605 6.49042C1.64544 6.69117 1.25537 6.6263 1.05447 6.3458C0.853536 6.06511 0.917843 5.67452 1.19851 5.47359L6.55375 1.63997L6.59831 1.60762C6.75794 1.49228 6.95837 1.3478 7.19219 1.2884Z" fill="#F0F4F8"/>
</svg>
