<svg width="16" height="16" viewBox="0 0 16 16" fill="none" xmlns="http://www.w3.org/2000/svg">
<path d="M8.00065 6C8.36885 6 8.66732 6.29848 8.66732 6.66667V7.72367L9.47212 8.52867C9.73245 8.78907 9.73238 9.21113 9.47198 9.47147C9.21158 9.7318 8.78952 9.73173 8.52918 9.47133L7.52918 8.47107C7.40418 8.34607 7.33398 8.17653 7.33398 7.99973V6.66667C7.33398 6.29848 7.63245 6 8.00065 6Z" fill="#E5E5E5"/>
<path fill-rule="evenodd" clip-rule="evenodd" d="M2 4C2 2.89543 2.89543 2 4 2H12C13.1046 2 14 2.89543 14 4V12C14 13.1046 13.1046 14 12 14H4C2.89543 14 2 13.1046 2 12V4ZM8 4.33333C5.97495 4.33333 4.33333 5.97495 4.33333 8C4.33333 10.0251 5.97495 11.6667 8 11.6667C10.0251 11.6667 11.6667 10.0251 11.6667 8C11.6667 5.97495 10.0251 4.33333 8 4.33333Z" fill="#E5E5E5"/>
</svg>
