<svg width="16" height="16" viewBox="0 0 16 16" fill="none" xmlns="http://www.w3.org/2000/svg">
<path d="M2.33468 5.36062C2.33402 5.34615 2.33383 5.33162 2.33411 5.31708L2.33412 2.6665C2.33412 2.29831 2.63259 1.99984 3.00079 1.99984C3.36897 1.99984 3.66745 2.29832 3.66745 2.6665V3.38115C4.79993 2.31823 6.324 1.6665 8.00079 1.6665C10.1066 1.6665 11.9723 2.69489 13.1227 4.27393C13.3395 4.57152 13.274 4.98852 12.9764 5.20533C12.6789 5.42214 12.2619 5.35666 12.045 5.05907C11.1347 3.80967 9.66239 2.99984 8.00079 2.99984C6.52052 2.99984 5.18985 3.64296 4.27381 4.6665H5.66751C6.03571 4.6665 6.33418 4.96498 6.33418 5.33317C6.33418 5.70136 6.03571 5.99984 5.66751 5.99984H3.00078C2.82397 5.99984 2.6544 5.9296 2.52938 5.80458C2.41084 5.68604 2.34155 5.52746 2.33468 5.36062Z" fill="#E5E5E5"/>
<path d="M3.03394 8.58913C2.99109 8.22346 2.65989 7.96173 2.29421 8.0046C1.92852 8.04746 1.66681 8.37866 1.70967 8.74433C1.95638 10.8495 3.23403 12.6367 5.02145 13.5907C5.34627 13.7641 5.75013 13.6413 5.92349 13.3165C6.09685 12.9917 5.97407 12.5878 5.64925 12.4145C4.23557 11.6599 3.22828 10.2474 3.03394 8.58913Z" fill="#E5E5E5"/>
<path d="M7.39525 13.144L7.70832 11.7352C7.79085 11.3638 7.97752 11.0238 8.24645 10.7548L10.6478 8.35352L12.9811 10.6868L10.5798 13.0881C10.3109 13.3571 9.97079 13.5438 9.59945 13.6263L8.19065 13.9394C7.71432 14.0452 7.28939 13.6203 7.39525 13.144Z" fill="#E5E5E5"/>
<path d="M13.6868 9.97943L11.3535 7.6461L11.8333 7.16637C12.4777 6.52202 13.5223 6.52202 14.1667 7.16637C14.811 7.8107 14.811 8.85537 14.1667 9.4997L13.6868 9.97943Z" fill="#E5E5E5"/>
</svg>
