<svg width="16" height="16" viewBox="0 0 16 16" fill="none" xmlns="http://www.w3.org/2000/svg">
<path d="M8.00065 1.6665C11.6461 1.6665 14.6673 4.46664 14.6673 7.99984C14.6673 11.533 11.6461 14.3332 8.00065 14.3332C7.03058 14.3332 6.10644 14.1362 5.27214 13.7804C5.07202 13.6951 4.86338 13.675 4.67643 13.7179C4.04064 13.8642 3.38803 13.9566 2.70833 13.9985C2.48193 14.0125 2.26373 13.9106 2.12956 13.7277C1.9954 13.5448 1.96363 13.306 2.04492 13.0942C2.20334 12.6817 2.34143 12.2753 2.44857 11.8677C2.4856 11.7268 2.45446 11.5263 2.30729 11.2974C1.69071 10.3383 1.33398 9.20857 1.33398 7.99984C1.33398 4.46664 4.35516 1.6665 8.00065 1.6665Z" fill="#E5E5E5"/>
</svg>
