<svg width="16" height="16" viewBox="0 0 16 16" fill="none" xmlns="http://www.w3.org/2000/svg">
<path d="M4.66732 2C5.0355 2 5.33398 2.29848 5.33398 2.66667V4H7.33398C7.70218 4 8.00065 4.29848 8.00065 4.66667C8.00065 5.03485 7.70218 5.33333 7.33398 5.33333H5.33398V10C5.33398 10.3682 5.0355 10.6667 4.66732 10.6667H3.66732C3.11503 10.6667 2.66732 11.1144 2.66732 11.6667C2.66732 12.2189 3.11503 12.6667 3.66732 12.6667H12.0007C12.3689 12.6667 12.6673 12.3682 12.6673 12V9.33333C12.6673 8.96513 12.9658 8.66667 13.334 8.66667C13.7022 8.66667 14.0007 8.96513 14.0007 9.33333V12C14.0007 13.1046 13.1053 14 12.0007 14H3.66732C2.37865 14 1.33398 12.9553 1.33398 11.6667V4.33333C1.33398 3.04467 2.37865 2 3.66732 2H4.66732Z" fill="#E5E5E5"/>
<path d="M11.1947 3.63996C11.8845 2.95007 13.0028 2.95011 13.6927 3.63996C14.3826 4.32987 14.3826 5.44811 13.6927 6.13801L11.3593 8.47132C11.2343 8.59632 11.0648 8.66665 10.888 8.66665H9.33268C8.96448 8.66665 8.66602 8.36819 8.66602 7.99999V6.44465C8.66602 6.26786 8.73635 6.09831 8.86135 5.97329L11.1947 3.63996Z" fill="#E5E5E5"/>
</svg>
