<svg width="15" height="15" viewBox="0 0 15 15" fill="none" xmlns="http://www.w3.org/2000/svg">
<path d="M7.5 1.25C4.04822 1.25 1.25 4.04822 1.25 7.5C1.25 10.9517 4.04822 13.75 7.5 13.75C10.9517 13.75 13.75 10.9517 13.75 7.5C13.75 7.45744 13.7496 7.41494 13.7487 7.37262C13.7452 7.19912 13.6463 7.04181 13.4914 6.96356C13.3365 6.88537 13.1511 6.89906 13.0094 6.99925C12.424 7.41313 11.7099 7.65625 10.9375 7.65625C8.95275 7.65625 7.34375 6.04728 7.34375 4.0625C7.34375 3.29016 7.58687 2.57598 8.00075 1.99053C8.10094 1.84887 8.11463 1.66347 8.03644 1.50861C7.95819 1.35374 7.80088 1.25475 7.62738 1.25127C7.585 1.25042 7.54256 1.25 7.5 1.25Z" fill="#1E293B"/>
</svg>
