<svg width="16" height="16" viewBox="0 0 16 16" fill="none" xmlns="http://www.w3.org/2000/svg">
<path fill-rule="evenodd" clip-rule="evenodd" d="M7.99967 1.33301C11.6815 1.33301 14.6663 4.31777 14.6663 7.99967C14.6663 11.6815 11.6815 14.6663 7.99967 14.6663C4.31777 14.6663 1.33301 11.6815 1.33301 7.99967C1.33301 4.31777 4.31777 1.33301 7.99967 1.33301ZM10.3721 5.44694C10.0667 5.24141 9.65261 5.32204 9.44694 5.62728L6.98147 9.28874L5.80436 8.11167C5.54401 7.85127 5.122 7.85127 4.86165 8.11167C4.6013 8.37201 4.6013 8.79401 4.86165 9.05434L6.61165 10.8043C6.75254 10.9452 6.94921 11.0156 7.14747 10.9964C7.34554 10.9771 7.52454 10.8705 7.63574 10.7054L10.5524 6.37207C10.7579 6.06671 10.6773 5.65259 10.3721 5.44694Z" fill="#1E293B"/>
</svg>
