<svg width="15" height="15" viewBox="0 0 15 15" fill="none" xmlns="http://www.w3.org/2000/svg">
<path fill-rule="evenodd" clip-rule="evenodd" d="M5.0647 2.5C5.26874 1.77859 5.93201 1.25 6.71875 1.25H8.28125C9.068 1.25 9.73125 1.77859 9.93531 2.5H10.7812C11.7305 2.5 12.5 3.26951 12.5 4.21875V12.0312C12.5 12.9805 11.7305 13.75 10.7812 13.75H4.21875C3.26951 13.75 2.5 12.9805 2.5 12.0312V4.21875C2.5 3.26951 3.26951 2.5 4.21875 2.5H5.0647ZM5.9375 2.96875V3.90625C5.9375 3.99254 6.00746 4.0625 6.09375 4.0625H8.90625C8.99256 4.0625 9.0625 3.99254 9.0625 3.90625V2.96875C9.0625 2.53727 8.71275 2.1875 8.28125 2.1875H6.71875C6.28725 2.1875 5.9375 2.53727 5.9375 2.96875Z" fill="#F0F4F8"/>
</svg>
