<svg width="15" height="15" viewBox="0 0 15 15" fill="none" xmlns="http://www.w3.org/2000/svg">
<path fill-rule="evenodd" clip-rule="evenodd" d="M7.5 1.25C10.9517 1.25 13.75 4.04822 13.75 7.5C13.75 10.9517 10.9517 13.75 7.5 13.75C4.04822 13.75 1.25 10.9517 1.25 7.5C1.25 4.04822 4.04822 1.25 7.5 1.25ZM9.72413 5.10681C9.43781 4.91413 9.04963 4.98972 8.85681 5.27588L6.54544 8.7085L5.44189 7.605C5.19782 7.36088 4.80218 7.36088 4.55811 7.605C4.31403 7.84906 4.31403 8.24469 4.55811 8.48875L6.19873 10.1294C6.33081 10.2614 6.51519 10.3274 6.70106 10.3094C6.88675 10.2914 7.05456 10.1914 7.15881 10.0366L9.89319 5.97412C10.0859 5.68784 10.0103 5.29961 9.72413 5.10681Z" fill="#E5E5E5"/>
</svg>
