<svg width="15" height="15" viewBox="0 0 15 15" fill="none" xmlns="http://www.w3.org/2000/svg">
<g clip-path="url(#clip0_1349_8190)">
<g clip-path="url(#clip1_1349_8190)">
<path d="M8.125 1.25C8.125 0.904825 7.84519 0.625 7.5 0.625C7.15481 0.625 6.875 0.904825 6.875 1.25V1.875C6.875 2.22018 7.15481 2.5 7.5 2.5C7.84519 2.5 8.125 2.22018 8.125 1.875V1.25Z" fill="#F0F4F8"/>
<path d="M8.125 13.125C8.125 12.7798 7.84519 12.5 7.5 12.5C7.15481 12.5 6.875 12.7798 6.875 13.125V13.75C6.875 14.0952 7.15481 14.375 7.5 14.375C7.84519 14.375 8.125 14.0952 8.125 13.75V13.125Z" fill="#F0F4F8"/>
<path d="M12.3603 2.63912C12.6044 2.88319 12.6044 3.27892 12.3603 3.523L11.9165 3.96675C11.6725 4.21082 11.2768 4.21082 11.0327 3.96675C10.7886 3.72267 10.7886 3.32694 11.0327 3.08287L11.4764 2.63912C11.7205 2.39503 12.1162 2.39503 12.3603 2.63912Z" fill="#F0F4F8"/>
<path d="M3.96674 11.9165C4.21082 11.6725 4.21082 11.2767 3.96674 11.0327C3.72267 10.7886 3.32694 10.7886 3.08286 11.0327L2.63911 11.4764C2.39504 11.7205 2.39504 12.1162 2.63911 12.3603C2.88319 12.6043 3.27892 12.6043 3.52299 12.3603L3.96674 11.9165Z" fill="#F0F4F8"/>
<path d="M12.5 7.5C12.5 7.15481 12.7798 6.875 13.125 6.875H13.75C14.0952 6.875 14.375 7.15481 14.375 7.5C14.375 7.84519 14.0952 8.125 13.75 8.125H13.125C12.7798 8.125 12.5 7.84519 12.5 7.5Z" fill="#F0F4F8"/>
<path d="M1.25 6.875C0.904825 6.875 0.625 7.15481 0.625 7.5C0.625 7.84519 0.904825 8.125 1.25 8.125H1.875C2.22018 8.125 2.5 7.84519 2.5 7.5C2.5 7.15481 2.22018 6.875 1.875 6.875H1.25Z" fill="#F0F4F8"/>
<path d="M11.0327 11.0327C11.2768 10.7886 11.6725 10.7886 11.9165 11.0327L12.3603 11.4764C12.6044 11.7205 12.6044 12.1162 12.3603 12.3603C12.1162 12.6043 11.7205 12.6043 11.4764 12.3603L11.0327 11.9165C10.7886 11.6725 10.7886 11.2767 11.0327 11.0327Z" fill="#F0F4F8"/>
<path d="M3.52299 2.63912C3.27892 2.39503 2.88319 2.39503 2.63911 2.63912C2.39504 2.88319 2.39504 3.27892 2.63911 3.523L3.08286 3.96675C3.32694 4.21082 3.72267 4.21082 3.96674 3.96675C4.21082 3.72267 4.21082 3.32694 3.96674 3.08287L3.52299 2.63912Z" fill="#F0F4F8"/>
<path d="M4.84835 4.84835C6.31281 3.38388 8.68719 3.38388 10.1516 4.84835C11.6161 6.31281 11.6161 8.68719 10.1516 10.1516C8.68719 11.6161 6.31281 11.6161 4.84835 10.1516C3.38388 8.68719 3.38388 6.31281 4.84835 4.84835Z" fill="#F0F4F8"/>
</g>
</g>
<defs>
<clipPath id="clip0_1349_8190">
<rect width="15" height="15" fill="white"/>
</clipPath>
<clipPath id="clip1_1349_8190">
<rect width="15" height="15" fill="white"/>
</clipPath>
</defs>
</svg>
