<svg width="16" height="16" viewBox="0 0 16 16" fill="none" xmlns="http://www.w3.org/2000/svg">
<path d="M5.33333 1.99992C5.33333 1.63173 5.03485 1.33325 4.66667 1.33325C4.29848 1.33325 4 1.63173 4 1.99992V3.33325C4 3.70144 4.29848 3.99992 4.66667 3.99992C5.03485 3.99992 5.33333 3.70144 5.33333 3.33325V1.99992Z" fill="currentColor"/>
<path d="M7.99935 1.99992C7.99935 1.63173 7.70088 1.33325 7.33268 1.33325C6.96448 1.33325 6.66602 1.63173 6.66602 1.99992V3.33325C6.66602 3.70144 6.96448 3.99992 7.33268 3.99992C7.70088 3.99992 7.99935 3.70144 7.99935 3.33325V1.99992Z" fill="currentColor"/>
<path d="M10.6673 1.99992C10.6673 1.63173 10.3689 1.33325 10.0007 1.33325C9.63245 1.33325 9.33398 1.63173 9.33398 1.99992V3.33325C9.33398 3.70144 9.63245 3.99992 10.0007 3.99992C10.3689 3.99992 10.6673 3.70144 10.6673 3.33325V1.99992Z" fill="currentColor"/>
<path fill-rule="evenodd" clip-rule="evenodd" d="M2.66602 6.00008C2.66602 5.2637 3.26297 4.66675 3.99935 4.66675H10.666C11.4024 4.66675 11.9993 5.2637 11.9993 6.00008H12.3327C13.6213 6.00008 14.666 7.04475 14.666 8.33341C14.666 9.62208 13.6213 10.6667 12.3327 10.6667H11.9993V12.6667C11.9993 13.7713 11.1039 14.6667 9.99935 14.6667H4.66602C3.56145 14.6667 2.66602 13.7713 2.66602 12.6667V6.00008ZM11.9993 9.33341H12.3327C12.8849 9.33341 13.3327 8.88568 13.3327 8.33341C13.3327 7.78115 12.8849 7.33341 12.3327 7.33341H11.9993V9.33341Z" fill="currentColor"/>
</svg>
