<svg width="15" height="15" viewBox="0 0 15 15" fill="none" xmlns="http://www.w3.org/2000/svg">
<path fill-rule="evenodd" clip-rule="evenodd" d="M5.18306 2.05806C5.42714 1.81398 5.82286 1.81398 6.06694 2.05806L8.56694 4.55806C8.811 4.80214 8.811 5.19786 8.56694 5.44194C8.32287 5.68602 7.92713 5.68602 7.68306 5.44194L6.25 4.00888V11.25C6.25 11.5952 6.52981 11.875 6.875 11.875H11.875C12.2202 11.875 12.5 12.1548 12.5 12.5C12.5 12.8452 12.2202 13.125 11.875 13.125H6.875C5.83947 13.125 5 12.2856 5 11.25V4.00888L3.56694 5.44194C3.32286 5.68602 2.92714 5.68602 2.68306 5.44194C2.43898 5.19786 2.43898 4.80214 2.68306 4.55806L5.18306 2.05806Z" fill="#F0F4F8"/>
</svg>
