<svg width="32" height="32" viewBox="0 0 32 32" fill="none" xmlns="http://www.w3.org/2000/svg">
<g clip-path="url(#clip0_2088_12562)">
<path d="M25 0H7C3.13401 0 0 3.13401 0 7V25C0 28.866 3.13401 32 7 32H25C28.866 32 32 28.866 32 25V7C32 3.13401 28.866 0 25 0Z" fill="#0F0F0F"/>
<path d="M20.0664 18.707C20.0664 19.418 20.2734 19.7734 20.6875 19.7734C21.7031 19.7734 23.0234 19.0859 24.6484 17.7109L24.9648 17.4414C25.5977 17.0195 26.1094 16.8086 26.5 16.8086C26.8984 16.8086 27.1484 16.8672 27.25 16.9844C27.3594 17.1016 27.4141 17.2891 27.4141 17.5469C27.4141 18.125 27.1211 18.7383 26.5352 19.3867C25.6602 20.4492 24.4609 21.457 22.9375 22.4102C21.1719 23.5195 19.5898 24.0742 18.1914 24.0742C17.2148 24.0742 16.6016 23.5312 16.3516 22.4453C16.2812 22.1641 16.2305 21.8945 16.1992 21.6367C16.1211 21.0117 16.0391 20.6641 15.9531 20.5938C15.8672 20.5234 15.6953 20.5312 15.4375 20.6172C15.1875 20.6953 14.8867 20.832 14.5352 21.0273C14.1914 21.2148 13.8086 21.4453 13.3867 21.7188C11.1523 23.2031 9.86719 24.0508 9.53125 24.2617C8.72656 24.7617 8.18359 25.0117 7.90234 25.0117C7.62109 25.0117 7.34375 24.9531 7.07031 24.8359C6.80469 24.7188 6.57031 24.5703 6.36719 24.3906C5.94531 23.9922 5.73438 23.5859 5.73438 23.1719C5.73438 20.8047 6.25 18.7344 7.28125 16.9609C7.96875 15.7656 8.8125 14.9375 9.8125 14.4766C10.3203 14.2344 10.8672 14.1133 11.4531 14.1133C12.5234 14.1133 13.0586 14.4648 13.0586 15.168C13.0586 15.5977 12.8047 16.3008 12.2969 17.2773L11.9453 17.9688C11.6953 18.4453 11.5742 18.7148 11.582 18.7773C11.6289 19.0117 11.7344 19.1289 11.8984 19.1289C12.0781 19.1289 12.3438 18.9961 12.6953 18.7305L14.8516 17.125L15.9297 16.375C17.1719 15.5625 18.0859 15.1562 18.6719 15.1562C18.9844 15.1562 19.2695 15.2812 19.5273 15.5312C20.0039 15.9844 20.2422 16.3789 20.2422 16.7148C20.2422 16.8242 20.2305 16.957 20.207 17.1133C20.1914 17.2695 20.1719 17.4375 20.1484 17.6172L20.1016 18.168C20.0781 18.3555 20.0664 18.5352 20.0664 18.707Z" fill="#FBDEAD"/>
</g>
<defs>
<clipPath id="clip0_2088_12562">
<rect width="32" height="32" rx="7" fill="white"/>
</clipPath>
</defs>
</svg>
