<svg width="20" height="20" viewBox="0 0 20 20" fill="none" xmlns="http://www.w3.org/2000/svg">
<path fill-rule="evenodd" clip-rule="evenodd" d="M13.8888 7.77393C16.803 7.77393 19.1661 10.1369 19.1661 13.0513C19.1661 13.9971 18.9136 14.8815 18.4803 15.6469C18.4778 15.6597 18.4724 15.6917 18.4723 15.7483C18.4721 15.8507 18.4891 15.9878 18.5301 16.1441C18.6163 16.472 18.7739 16.7585 18.9226 16.9074C19.1548 17.14 19.2286 17.4875 19.1109 17.7945C18.9932 18.1015 18.706 18.3105 18.3778 18.3283C17.867 18.3559 17.3233 18.2555 16.868 18.1227C16.6012 18.0449 16.3373 17.948 16.1012 17.8403C15.774 17.9921 15.3582 18.1447 14.8646 18.2387C14.5486 18.2986 14.2212 18.3305 13.8879 18.3305C10.9725 18.3305 8.61057 15.9674 8.61057 13.0531C8.61057 10.1784 11.0127 7.77393 13.8888 7.77393Z" fill="black" fill-opacity="0.5"/>
<path d="M0.833313 9.16644C0.833313 8.93505 0.843815 8.70613 0.86437 8.48011C1.2108 4.67081 4.41265 1.68848 8.313 1.68848C11.4021 1.68848 14.0531 3.55923 15.1943 6.22992C14.7714 6.14947 14.335 6.10735 13.8888 6.10735C13.8483 6.10735 13.808 6.10833 13.7679 6.11028C9.98816 6.17455 6.94388 9.25852 6.94388 13.0532C6.94388 14.3636 7.30682 15.5892 7.93772 16.6351C6.88355 16.5831 5.88687 16.313 4.99186 15.869C4.62481 16.05 4.18896 16.2166 3.74062 16.3471C3.08495 16.538 2.32174 16.6758 1.62199 16.6381C1.29346 16.6205 1.00609 16.4111 0.888509 16.1038C0.770926 15.7966 0.845142 15.4489 1.07794 15.2164C1.36601 14.9287 1.62961 14.4289 1.77088 13.8914C1.83948 13.6302 1.87127 13.3892 1.87075 13.1937C1.87037 13.056 1.85417 12.9671 1.84024 12.9171C1.19992 11.8147 0.833313 10.5335 0.833313 9.16644Z" fill="black" fill-opacity="0.3"/>
</svg>
