<svg width="20" height="20" viewBox="0 0 20 20" fill="none" xmlns="http://www.w3.org/2000/svg">
<path fill-rule="evenodd" clip-rule="evenodd" d="M4.9572 9.58951C4.30072 9.57871 3.73157 9.63783 3.28417 9.71311C2.93267 9.77224 2.57566 9.84596 2.23958 9.96818C1.89937 10.097 1.51468 9.99027 1.28957 9.70421C1.06388 9.41742 1.05106 9.01713 1.25794 8.71648L3.76425 5.07408C4.29294 4.32732 4.93795 3.93155 5.70077 3.80679C6.39014 3.69404 7.12768 3.81609 7.80484 3.93749L8.94566 4.14175C13.1299 0.662058 17.7057 1.11242 18.1105 1.16058C18.4926 1.20605 18.7939 1.50724 18.8394 1.88933C18.8877 2.29347 19.338 6.87023 15.8582 11.0545L16.0624 12.1951C16.1839 12.8723 16.306 13.6098 16.1932 14.2992C16.0686 15.0621 15.6728 15.7071 14.926 16.2358L11.2834 18.7421C10.9828 18.9489 10.5825 18.9361 10.2957 18.7104C10.0316 18.5025 9.92032 18.1586 10.0063 17.8392C10.0299 17.7513 10.0544 17.6642 10.0787 17.5773C10.1583 17.293 10.2371 17.0113 10.2869 16.7158C10.3621 16.2684 10.4212 15.6993 10.4105 15.043C9.78837 15.2964 9.28744 15.4464 8.98024 15.5306C8.69138 15.61 8.38219 15.5282 8.17039 15.3163L4.68385 11.8298C4.47205 11.618 4.3902 11.3088 4.46949 11.0199C4.55383 10.7127 4.70376 10.2117 4.9572 9.58951ZM7.46694 5.57018C6.77478 5.44714 6.32619 5.39331 5.96979 5.45161C5.68028 5.49895 5.41662 5.62637 5.12759 6.03292L3.79646 7.96744C4.36262 7.91548 5.02184 7.89985 5.74849 7.96193C6.17948 7.20483 6.7401 6.38424 7.46694 5.57018ZM12.0381 14.2516C12.7951 13.8206 13.6158 13.26 14.4298 12.5332C14.5529 13.2254 14.6067 13.6739 14.5484 14.0303C14.5011 14.3199 14.3737 14.5835 13.9672 14.8725L12.0326 16.2036C12.0844 15.6374 12.1001 14.9783 12.0381 14.2516ZM14.7161 6.95066C14.7161 7.87119 13.9694 8.61733 13.0494 8.61733C12.1294 8.61733 11.3828 7.87119 11.3828 6.95066C11.3828 6.03013 12.1294 5.28399 13.0494 5.28399C13.9694 5.28399 14.7161 6.03013 14.7161 6.95066Z" fill="#00279B"/>
<path fill-rule="evenodd" clip-rule="evenodd" d="M3.9189 13.48C4.1257 13.8911 3.96005 14.3921 3.54889 14.5989C3.08657 14.8315 2.77778 15.2979 2.77778 15.8331V17.222H4.16667C4.70168 17.222 5.16806 16.9134 5.40056 16.4512C5.60739 16.04 6.10836 15.8745 6.5195 16.0812C6.93065 16.2881 7.09628 16.789 6.88945 17.2002C6.39106 18.1909 5.36877 18.8887 4.16667 18.8887H1.94445C1.48421 18.8887 1.11111 18.5156 1.11111 18.0554V15.8331C1.11111 14.6306 1.80919 13.6084 2.79998 13.11C3.21114 12.9032 3.7121 13.0689 3.9189 13.48Z" fill="#00279B"/>
</svg>
