<svg width="20" height="20" viewBox="0 0 20 20" fill="none" xmlns="http://www.w3.org/2000/svg">
<path d="M15.8333 3.3335H9.44445C8.98445 3.3335 8.61111 3.70683 8.61111 4.16683C8.61111 4.77905 8.11223 5.27794 7.5 5.27794C6.88778 5.27794 6.38889 4.77905 6.38889 4.16683C6.38889 3.70683 6.01556 3.3335 5.55556 3.3335H4.16667C2.48111 3.3335 1.11111 4.7035 1.11111 6.38905V13.6113C1.11111 15.2968 2.48111 16.6668 4.16667 16.6668H5.55556C6.01556 16.6668 6.38889 16.2935 6.38889 15.8335C6.38889 15.2213 6.88778 14.7224 7.5 14.7224C8.11223 14.7224 8.61111 15.2213 8.61111 15.8335C8.61111 16.2935 8.98445 16.6668 9.44445 16.6668H15.8333C17.5189 16.6668 18.8889 15.2968 18.8889 13.6113V6.38905C18.8889 4.7035 17.5189 3.3335 15.8333 3.3335ZM7.5 12.4313C7.04 12.4313 6.66667 12.0579 6.66667 11.5979C6.66667 11.1379 7.04 10.7646 7.5 10.7646C7.96 10.7646 8.33334 11.1379 8.33334 11.5979C8.33334 12.0579 7.96 12.4313 7.5 12.4313ZM7.5 9.23683C7.04 9.23683 6.66667 8.8635 6.66667 8.4035C6.66667 7.9435 7.04 7.57016 7.5 7.57016C7.96 7.57016 8.33334 7.9435 8.33334 8.4035C8.33334 8.8635 7.96 9.23683 7.5 9.23683Z" fill="#FC2F06"/>
</svg>
