<svg width="20" height="20" viewBox="0 0 20 20" fill="none" xmlns="http://www.w3.org/2000/svg">
<path d="M15.8333 4.1665H9.16666C9.16666 5.0865 8.42 5.83317 7.5 5.83317C6.58 5.83317 5.83333 5.0865 5.83333 4.1665H4.16666C2.93889 4.1665 1.94444 5.16206 1.94444 6.38873V13.6109C1.94444 14.8376 2.93889 15.8332 4.16666 15.8332H5.83333C5.83333 14.9132 6.58 14.1665 7.5 14.1665C8.42 14.1665 9.16666 14.9132 9.16666 15.8332H15.8333C17.0611 15.8332 18.0556 14.8376 18.0556 13.6109V6.38873C18.0556 5.16206 17.0611 4.1665 15.8333 4.1665Z" fill="#FED5CD" stroke="#FC2F06" stroke-width="1.33333" stroke-linecap="round" stroke-linejoin="round"/>
<path d="M7.49999 9.23698C7.96023 9.23698 8.33332 8.86388 8.33332 8.40365C8.33332 7.94341 7.96023 7.57031 7.49999 7.57031C7.03975 7.57031 6.66666 7.94341 6.66666 8.40365C6.66666 8.86388 7.03975 9.23698 7.49999 9.23698Z" fill="#FC2F06"/>
<path d="M7.49999 12.4303C7.96023 12.4303 8.33332 12.0572 8.33332 11.597C8.33332 11.1368 7.96023 10.7637 7.49999 10.7637C7.03975 10.7637 6.66666 11.1368 6.66666 11.597C6.66666 12.0572 7.03975 12.4303 7.49999 12.4303Z" fill="#FC2F06"/>
</svg>
